<?xml version="1.0" encoding="utf-8" standalone="no"?>
<!DOCTYPE svg PUBLIC "-//W3C//DTD SVG 1.1//EN"
  "http://www.w3.org/Graphics/SVG/1.1/DTD/svg11.dtd">
<svg xmlns:xlink="http://www.w3.org/1999/xlink" width="1296pt" height="504pt" viewBox="0 0 1296 504" xmlns="http://www.w3.org/2000/svg" version="1.1">
 <metadata>
  <rdf:RDF xmlns:dc="http://purl.org/dc/elements/1.1/" xmlns:cc="http://creativecommons.org/ns#" xmlns:rdf="http://www.w3.org/1999/02/22-rdf-syntax-ns#">
   <cc:Work>
    <dc:type rdf:resource="http://purl.org/dc/dcmitype/StillImage"/>
    <dc:date>2026-03-25T16:10:02.717743</dc:date>
    <dc:format>image/svg+xml</dc:format>
    <dc:creator>
     <cc:Agent>
      <dc:title>Matplotlib v3.10.3, https://matplotlib.org/</dc:title>
     </cc:Agent>
    </dc:creator>
   </cc:Work>
  </rdf:RDF>
 </metadata>
 <defs>
  <style type="text/css">*{stroke-linejoin: round; stroke-linecap: butt}</style>
 </defs>
 <g id="figure_1">
  <g id="patch_1">
   <path d="M 0 504 
L 1296 504 
L 1296 0 
L 0 0 
z
" style="fill: #ffffff"/>
  </g>
  <g id="axes_1">
   <g id="patch_2">
    <path d="M 78.23 348.71834 
L 1270.395464 348.71834 
L 1270.395464 21.6 
L 78.23 21.6 
z
" style="fill: #ffffff"/>
   </g>
   <g id="matplotlib.axis_1">
    <g id="xtick_1">
     <g id="line2d_1">
      <defs>
       <path id="mba9aa240d4" d="M 0 0 
L 0 3.5 
" style="stroke: #000000; stroke-width: 0.8"/>
      </defs>
      <g>
       <use xlink:href="#mba9aa240d4" x="108.034137" y="348.71834" style="stroke: #000000; stroke-width: 0.8"/>
      </g>
     </g>
     <g id="text_1">
      <!-- EB -->
      <g transform="translate(106.223671 386.144666) rotate(-60) scale(0.2 -0.2)">
       <defs>
        <path id="DejaVuSans-45" d="M 628 4666 
L 3578 4666 
L 3578 4134 
L 1259 4134 
L 1259 2753 
L 3481 2753 
L 3481 2222 
L 1259 2222 
L 1259 531 
L 3634 531 
L 3634 0 
L 628 0 
L 628 4666 
z
" transform="scale(0.015625)"/>
        <path id="DejaVuSans-42" d="M 1259 2228 
L 1259 519 
L 2272 519 
Q 2781 519 3026 730 
Q 3272 941 3272 1375 
Q 3272 1813 3026 2020 
Q 2781 2228 2272 2228 
L 1259 2228 
z
M 1259 4147 
L 1259 2741 
L 2194 2741 
Q 2656 2741 2882 2914 
Q 3109 3088 3109 3444 
Q 3109 3797 2882 3972 
Q 2656 4147 2194 4147 
L 1259 4147 
z
M 628 4666 
L 2241 4666 
Q 2963 4666 3353 4366 
Q 3744 4066 3744 3513 
Q 3744 3084 3544 2831 
Q 3344 2578 2956 2516 
Q 3422 2416 3680 2098 
Q 3938 1781 3938 1306 
Q 3938 681 3513 340 
Q 3088 0 2303 0 
L 628 0 
L 628 4666 
z
" transform="scale(0.015625)"/>
       </defs>
       <use xlink:href="#DejaVuSans-45"/>
       <use xlink:href="#DejaVuSans-42" transform="translate(63.183594 0)"/>
      </g>
     </g>
    </g>
    <g id="xtick_2">
     <g id="line2d_2">
      <g>
       <use xlink:href="#mba9aa240d4" x="167.64241" y="348.71834" style="stroke: #000000; stroke-width: 0.8"/>
      </g>
     </g>
     <g id="text_2">
      <!-- EC -->
      <g transform="translate(165.771006 386.355759) rotate(-60) scale(0.2 -0.2)">
       <defs>
        <path id="DejaVuSans-43" d="M 4122 4306 
L 4122 3641 
Q 3803 3938 3442 4084 
Q 3081 4231 2675 4231 
Q 1875 4231 1450 3742 
Q 1025 3253 1025 2328 
Q 1025 1406 1450 917 
Q 1875 428 2675 428 
Q 3081 428 3442 575 
Q 3803 722 4122 1019 
L 4122 359 
Q 3791 134 3420 21 
Q 3050 -91 2638 -91 
Q 1578 -91 968 557 
Q 359 1206 359 2328 
Q 359 3453 968 4101 
Q 1578 4750 2638 4750 
Q 3056 4750 3426 4639 
Q 3797 4528 4122 4306 
z
" transform="scale(0.015625)"/>
       </defs>
       <use xlink:href="#DejaVuSans-45"/>
       <use xlink:href="#DejaVuSans-43" transform="translate(63.183594 0)"/>
      </g>
     </g>
    </g>
    <g id="xtick_3">
     <g id="line2d_3">
      <g>
       <use xlink:href="#mba9aa240d4" x="227.250683" y="348.71834" style="stroke: #000000; stroke-width: 0.8"/>
      </g>
     </g>
     <g id="text_3">
      <!-- VPD -->
      <g transform="translate(221.744904 398.945604) rotate(-60) scale(0.2 -0.2)">
       <defs>
        <path id="DejaVuSans-56" d="M 1831 0 
L 50 4666 
L 709 4666 
L 2188 738 
L 3669 4666 
L 4325 4666 
L 2547 0 
L 1831 0 
z
" transform="scale(0.015625)"/>
        <path id="DejaVuSans-50" d="M 1259 4147 
L 1259 2394 
L 2053 2394 
Q 2494 2394 2734 2622 
Q 2975 2850 2975 3272 
Q 2975 3691 2734 3919 
Q 2494 4147 2053 4147 
L 1259 4147 
z
M 628 4666 
L 2053 4666 
Q 2838 4666 3239 4311 
Q 3641 3956 3641 3272 
Q 3641 2581 3239 2228 
Q 2838 1875 2053 1875 
L 1259 1875 
L 1259 0 
L 628 0 
L 628 4666 
z
" transform="scale(0.015625)"/>
        <path id="DejaVuSans-44" d="M 1259 4147 
L 1259 519 
L 2022 519 
Q 2988 519 3436 956 
Q 3884 1394 3884 2338 
Q 3884 3275 3436 3711 
Q 2988 4147 2022 4147 
L 1259 4147 
z
M 628 4666 
L 1925 4666 
Q 3281 4666 3915 4102 
Q 4550 3538 4550 2338 
Q 4550 1131 3912 565 
Q 3275 0 1925 0 
L 628 0 
L 628 4666 
z
" transform="scale(0.015625)"/>
       </defs>
       <use xlink:href="#DejaVuSans-56"/>
       <use xlink:href="#DejaVuSans-50" transform="translate(68.408203 0)"/>
       <use xlink:href="#DejaVuSans-44" transform="translate(128.710938 0)"/>
      </g>
     </g>
    </g>
    <g id="xtick_4">
     <g id="line2d_4">
      <g>
       <use xlink:href="#mba9aa240d4" x="346.467229" y="348.71834" style="stroke: #000000; stroke-width: 0.8"/>
      </g>
     </g>
     <g id="text_4">
      <!-- PD1 SDF -->
      <g transform="translate(329.711451 437.916747) rotate(-60) scale(0.2 -0.2)">
       <defs>
        <path id="DejaVuSans-31" d="M 794 531 
L 1825 531 
L 1825 4091 
L 703 3866 
L 703 4441 
L 1819 4666 
L 2450 4666 
L 2450 531 
L 3481 531 
L 3481 0 
L 794 0 
L 794 531 
z
" transform="scale(0.015625)"/>
        <path id="DejaVuSans-20" transform="scale(0.015625)"/>
        <path id="DejaVuSans-53" d="M 3425 4513 
L 3425 3897 
Q 3066 4069 2747 4153 
Q 2428 4238 2131 4238 
Q 1616 4238 1336 4038 
Q 1056 3838 1056 3469 
Q 1056 3159 1242 3001 
Q 1428 2844 1947 2747 
L 2328 2669 
Q 3034 2534 3370 2195 
Q 3706 1856 3706 1288 
Q 3706 609 3251 259 
Q 2797 -91 1919 -91 
Q 1588 -91 1214 -16 
Q 841 59 441 206 
L 441 856 
Q 825 641 1194 531 
Q 1563 422 1919 422 
Q 2459 422 2753 634 
Q 3047 847 3047 1241 
Q 3047 1584 2836 1778 
Q 2625 1972 2144 2069 
L 1759 2144 
Q 1053 2284 737 2584 
Q 422 2884 422 3419 
Q 422 4038 858 4394 
Q 1294 4750 2059 4750 
Q 2388 4750 2728 4690 
Q 3069 4631 3425 4513 
z
" transform="scale(0.015625)"/>
        <path id="DejaVuSans-46" d="M 628 4666 
L 3309 4666 
L 3309 4134 
L 1259 4134 
L 1259 2759 
L 3109 2759 
L 3109 2228 
L 1259 2228 
L 1259 0 
L 628 0 
L 628 4666 
z
" transform="scale(0.015625)"/>
       </defs>
       <use xlink:href="#DejaVuSans-50"/>
       <use xlink:href="#DejaVuSans-44" transform="translate(60.302734 0)"/>
       <use xlink:href="#DejaVuSans-31" transform="translate(137.304688 0)"/>
       <use xlink:href="#DejaVuSans-20" transform="translate(200.927734 0)"/>
       <use xlink:href="#DejaVuSans-53" transform="translate(232.714844 0)"/>
       <use xlink:href="#DejaVuSans-44" transform="translate(296.191406 0)"/>
       <use xlink:href="#DejaVuSans-46" transform="translate(373.193359 0)"/>
      </g>
     </g>
    </g>
    <g id="xtick_5">
     <g id="line2d_5">
      <g>
       <use xlink:href="#mba9aa240d4" x="406.075503" y="348.71834" style="stroke: #000000; stroke-width: 0.8"/>
      </g>
     </g>
     <g id="text_5">
      <!-- PD2 SDF -->
      <g transform="translate(389.319724 437.916747) rotate(-60) scale(0.2 -0.2)">
       <defs>
        <path id="DejaVuSans-32" d="M 1228 531 
L 3431 531 
L 3431 0 
L 469 0 
L 469 531 
Q 828 903 1448 1529 
Q 2069 2156 2228 2338 
Q 2531 2678 2651 2914 
Q 2772 3150 2772 3378 
Q 2772 3750 2511 3984 
Q 2250 4219 1831 4219 
Q 1534 4219 1204 4116 
Q 875 4013 500 3803 
L 500 4441 
Q 881 4594 1212 4672 
Q 1544 4750 1819 4750 
Q 2544 4750 2975 4387 
Q 3406 4025 3406 3419 
Q 3406 3131 3298 2873 
Q 3191 2616 2906 2266 
Q 2828 2175 2409 1742 
Q 1991 1309 1228 531 
z
" transform="scale(0.015625)"/>
       </defs>
       <use xlink:href="#DejaVuSans-50"/>
       <use xlink:href="#DejaVuSans-44" transform="translate(60.302734 0)"/>
       <use xlink:href="#DejaVuSans-32" transform="translate(137.304688 0)"/>
       <use xlink:href="#DejaVuSans-20" transform="translate(200.927734 0)"/>
       <use xlink:href="#DejaVuSans-53" transform="translate(232.714844 0)"/>
       <use xlink:href="#DejaVuSans-44" transform="translate(296.191406 0)"/>
       <use xlink:href="#DejaVuSans-46" transform="translate(373.193359 0)"/>
      </g>
     </g>
    </g>
    <g id="xtick_6">
     <g id="line2d_6">
      <g>
       <use xlink:href="#mba9aa240d4" x="465.683776" y="348.71834" style="stroke: #000000; stroke-width: 0.8"/>
      </g>
     </g>
     <g id="text_6">
      <!-- LP SDF -->
      <g transform="translate(453.17331 423.210553) rotate(-60) scale(0.2 -0.2)">
       <defs>
        <path id="DejaVuSans-4c" d="M 628 4666 
L 1259 4666 
L 1259 531 
L 3531 531 
L 3531 0 
L 628 0 
L 628 4666 
z
" transform="scale(0.015625)"/>
       </defs>
       <use xlink:href="#DejaVuSans-4c"/>
       <use xlink:href="#DejaVuSans-50" transform="translate(55.712891 0)"/>
       <use xlink:href="#DejaVuSans-20" transform="translate(116.015625 0)"/>
       <use xlink:href="#DejaVuSans-53" transform="translate(147.802734 0)"/>
       <use xlink:href="#DejaVuSans-44" transform="translate(211.279297 0)"/>
       <use xlink:href="#DejaVuSans-46" transform="translate(288.28125 0)"/>
      </g>
     </g>
    </g>
    <g id="xtick_7">
     <g id="line2d_7">
      <g>
       <use xlink:href="#mba9aa240d4" x="525.292049" y="348.71834" style="stroke: #000000; stroke-width: 0.8"/>
      </g>
     </g>
     <g id="text_7">
      <!-- PD1 $\overline{ISI}$ -->
      <g transform="translate(512.636781 425.399661) rotate(-60) scale(0.2 -0.2)">
       <defs>
        <path id="DejaVuSans-Oblique-49" d="M 1081 4666 
L 1716 4666 
L 806 0 
L 172 0 
L 1081 4666 
z
" transform="scale(0.015625)"/>
        <path id="DejaVuSans-Oblique-53" d="M 3859 4513 
L 3738 3897 
Q 3422 4066 3111 4152 
Q 2800 4238 2509 4238 
Q 1944 4238 1609 3991 
Q 1275 3744 1275 3334 
Q 1275 3109 1398 2989 
Q 1522 2869 2034 2731 
L 2413 2638 
Q 3053 2472 3303 2217 
Q 3553 1963 3553 1503 
Q 3553 797 2998 353 
Q 2444 -91 1538 -91 
Q 1166 -91 791 -17 
Q 416 56 38 206 
L 166 856 
Q 513 641 861 531 
Q 1209 422 1556 422 
Q 2147 422 2503 684 
Q 2859 947 2859 1369 
Q 2859 1650 2717 1795 
Q 2575 1941 2106 2059 
L 1728 2156 
Q 1081 2325 845 2545 
Q 609 2766 609 3163 
Q 609 3859 1145 4304 
Q 1681 4750 2541 4750 
Q 2875 4750 3203 4690 
Q 3531 4631 3859 4513 
z
" transform="scale(0.015625)"/>
       </defs>
       <use xlink:href="#DejaVuSans-50" transform="translate(0 0.03125)"/>
       <use xlink:href="#DejaVuSans-44" transform="translate(60.302734 0.03125)"/>
       <use xlink:href="#DejaVuSans-31" transform="translate(137.304688 0.03125)"/>
       <use xlink:href="#DejaVuSans-20" transform="translate(200.927734 0.03125)"/>
       <use xlink:href="#DejaVuSans-Oblique-49" transform="translate(232.714844 0.53125)"/>
       <use xlink:href="#DejaVuSans-Oblique-53" transform="translate(262.207031 0.53125)"/>
       <use xlink:href="#DejaVuSans-Oblique-49" transform="translate(325.683594 0.53125)"/>
       <path d="M 232.714844 86.5 
L 232.714844 92.75 
L 355.175781 92.75 
L 355.175781 86.5 
L 232.714844 86.5 
z
"/>
      </g>
     </g>
    </g>
    <g id="xtick_8">
     <g id="line2d_8">
      <g>
       <use xlink:href="#mba9aa240d4" x="584.900322" y="348.71834" style="stroke: #000000; stroke-width: 0.8"/>
      </g>
     </g>
     <g id="text_8">
      <!-- PD2 $\overline{ISI}$ -->
      <g transform="translate(572.245054 425.399661) rotate(-60) scale(0.2 -0.2)">
       <use xlink:href="#DejaVuSans-50" transform="translate(0 0.03125)"/>
       <use xlink:href="#DejaVuSans-44" transform="translate(60.302734 0.03125)"/>
       <use xlink:href="#DejaVuSans-32" transform="translate(137.304688 0.03125)"/>
       <use xlink:href="#DejaVuSans-20" transform="translate(200.927734 0.03125)"/>
       <use xlink:href="#DejaVuSans-Oblique-49" transform="translate(232.714844 0.53125)"/>
       <use xlink:href="#DejaVuSans-Oblique-53" transform="translate(262.207031 0.53125)"/>
       <use xlink:href="#DejaVuSans-Oblique-49" transform="translate(325.683594 0.53125)"/>
       <path d="M 232.714844 86.5 
L 232.714844 92.75 
L 355.175781 92.75 
L 355.175781 86.5 
L 232.714844 86.5 
z
"/>
      </g>
     </g>
    </g>
    <g id="xtick_9">
     <g id="line2d_9">
      <g>
       <use xlink:href="#mba9aa240d4" x="644.508595" y="348.71834" style="stroke: #000000; stroke-width: 0.8"/>
      </g>
     </g>
     <g id="text_9">
      <!-- LP $\overline{ISI}$ -->
      <g transform="translate(636.103328 410.677229) rotate(-60) scale(0.2 -0.2)">
       <use xlink:href="#DejaVuSans-4c" transform="translate(0 0.03125)"/>
       <use xlink:href="#DejaVuSans-50" transform="translate(55.712891 0.03125)"/>
       <use xlink:href="#DejaVuSans-20" transform="translate(116.015625 0.03125)"/>
       <use xlink:href="#DejaVuSans-Oblique-49" transform="translate(147.802734 0.53125)"/>
       <use xlink:href="#DejaVuSans-Oblique-53" transform="translate(177.294922 0.53125)"/>
       <use xlink:href="#DejaVuSans-Oblique-49" transform="translate(240.771484 0.53125)"/>
       <path d="M 147.802734 86.5 
L 147.802734 92.75 
L 270.263672 92.75 
L 270.263672 86.5 
L 147.802734 86.5 
z
"/>
      </g>
     </g>
    </g>
    <g id="xtick_10">
     <g id="line2d_10">
      <g>
       <use xlink:href="#mba9aa240d4" x="763.725142" y="348.71834" style="stroke: #000000; stroke-width: 0.8"/>
      </g>
     </g>
     <g id="text_10">
      <!-- PD1 period -->
      <g transform="translate(740.940457 458.801491) rotate(-60) scale(0.2 -0.2)">
       <defs>
        <path id="DejaVuSans-70" d="M 1159 525 
L 1159 -1331 
L 581 -1331 
L 581 3500 
L 1159 3500 
L 1159 2969 
Q 1341 3281 1617 3432 
Q 1894 3584 2278 3584 
Q 2916 3584 3314 3078 
Q 3713 2572 3713 1747 
Q 3713 922 3314 415 
Q 2916 -91 2278 -91 
Q 1894 -91 1617 61 
Q 1341 213 1159 525 
z
M 3116 1747 
Q 3116 2381 2855 2742 
Q 2594 3103 2138 3103 
Q 1681 3103 1420 2742 
Q 1159 2381 1159 1747 
Q 1159 1113 1420 752 
Q 1681 391 2138 391 
Q 2594 391 2855 752 
Q 3116 1113 3116 1747 
z
" transform="scale(0.015625)"/>
        <path id="DejaVuSans-65" d="M 3597 1894 
L 3597 1613 
L 953 1613 
Q 991 1019 1311 708 
Q 1631 397 2203 397 
Q 2534 397 2845 478 
Q 3156 559 3463 722 
L 3463 178 
Q 3153 47 2828 -22 
Q 2503 -91 2169 -91 
Q 1331 -91 842 396 
Q 353 884 353 1716 
Q 353 2575 817 3079 
Q 1281 3584 2069 3584 
Q 2775 3584 3186 3129 
Q 3597 2675 3597 1894 
z
M 3022 2063 
Q 3016 2534 2758 2815 
Q 2500 3097 2075 3097 
Q 1594 3097 1305 2825 
Q 1016 2553 972 2059 
L 3022 2063 
z
" transform="scale(0.015625)"/>
        <path id="DejaVuSans-72" d="M 2631 2963 
Q 2534 3019 2420 3045 
Q 2306 3072 2169 3072 
Q 1681 3072 1420 2755 
Q 1159 2438 1159 1844 
L 1159 0 
L 581 0 
L 581 3500 
L 1159 3500 
L 1159 2956 
Q 1341 3275 1631 3429 
Q 1922 3584 2338 3584 
Q 2397 3584 2469 3576 
Q 2541 3569 2628 3553 
L 2631 2963 
z
" transform="scale(0.015625)"/>
        <path id="DejaVuSans-69" d="M 603 3500 
L 1178 3500 
L 1178 0 
L 603 0 
L 603 3500 
z
M 603 4863 
L 1178 4863 
L 1178 4134 
L 603 4134 
L 603 4863 
z
" transform="scale(0.015625)"/>
        <path id="DejaVuSans-6f" d="M 1959 3097 
Q 1497 3097 1228 2736 
Q 959 2375 959 1747 
Q 959 1119 1226 758 
Q 1494 397 1959 397 
Q 2419 397 2687 759 
Q 2956 1122 2956 1747 
Q 2956 2369 2687 2733 
Q 2419 3097 1959 3097 
z
M 1959 3584 
Q 2709 3584 3137 3096 
Q 3566 2609 3566 1747 
Q 3566 888 3137 398 
Q 2709 -91 1959 -91 
Q 1206 -91 779 398 
Q 353 888 353 1747 
Q 353 2609 779 3096 
Q 1206 3584 1959 3584 
z
" transform="scale(0.015625)"/>
        <path id="DejaVuSans-64" d="M 2906 2969 
L 2906 4863 
L 3481 4863 
L 3481 0 
L 2906 0 
L 2906 525 
Q 2725 213 2448 61 
Q 2172 -91 1784 -91 
Q 1150 -91 751 415 
Q 353 922 353 1747 
Q 353 2572 751 3078 
Q 1150 3584 1784 3584 
Q 2172 3584 2448 3432 
Q 2725 3281 2906 2969 
z
M 947 1747 
Q 947 1113 1208 752 
Q 1469 391 1925 391 
Q 2381 391 2643 752 
Q 2906 1113 2906 1747 
Q 2906 2381 2643 2742 
Q 2381 3103 1925 3103 
Q 1469 3103 1208 2742 
Q 947 2381 947 1747 
z
" transform="scale(0.015625)"/>
       </defs>
       <use xlink:href="#DejaVuSans-50"/>
       <use xlink:href="#DejaVuSans-44" transform="translate(60.302734 0)"/>
       <use xlink:href="#DejaVuSans-31" transform="translate(137.304688 0)"/>
       <use xlink:href="#DejaVuSans-20" transform="translate(200.927734 0)"/>
       <use xlink:href="#DejaVuSans-70" transform="translate(232.714844 0)"/>
       <use xlink:href="#DejaVuSans-65" transform="translate(296.191406 0)"/>
       <use xlink:href="#DejaVuSans-72" transform="translate(357.714844 0)"/>
       <use xlink:href="#DejaVuSans-69" transform="translate(398.828125 0)"/>
       <use xlink:href="#DejaVuSans-6f" transform="translate(426.611328 0)"/>
       <use xlink:href="#DejaVuSans-64" transform="translate(487.792969 0)"/>
      </g>
     </g>
    </g>
    <g id="xtick_11">
     <g id="line2d_11">
      <g>
       <use xlink:href="#mba9aa240d4" x="823.333415" y="348.71834" style="stroke: #000000; stroke-width: 0.8"/>
      </g>
     </g>
     <g id="text_11">
      <!-- PD2 period -->
      <g transform="translate(800.54873 458.801491) rotate(-60) scale(0.2 -0.2)">
       <use xlink:href="#DejaVuSans-50"/>
       <use xlink:href="#DejaVuSans-44" transform="translate(60.302734 0)"/>
       <use xlink:href="#DejaVuSans-32" transform="translate(137.304688 0)"/>
       <use xlink:href="#DejaVuSans-20" transform="translate(200.927734 0)"/>
       <use xlink:href="#DejaVuSans-70" transform="translate(232.714844 0)"/>
       <use xlink:href="#DejaVuSans-65" transform="translate(296.191406 0)"/>
       <use xlink:href="#DejaVuSans-72" transform="translate(357.714844 0)"/>
       <use xlink:href="#DejaVuSans-69" transform="translate(398.828125 0)"/>
       <use xlink:href="#DejaVuSans-6f" transform="translate(426.611328 0)"/>
       <use xlink:href="#DejaVuSans-64" transform="translate(487.792969 0)"/>
      </g>
     </g>
    </g>
    <g id="xtick_12">
     <g id="line2d_12">
      <g>
       <use xlink:href="#mba9aa240d4" x="882.941688" y="348.71834" style="stroke: #000000; stroke-width: 0.8"/>
      </g>
     </g>
     <g id="text_12">
      <!-- LP period -->
      <g transform="translate(864.402316 444.095297) rotate(-60) scale(0.2 -0.2)">
       <use xlink:href="#DejaVuSans-4c"/>
       <use xlink:href="#DejaVuSans-50" transform="translate(55.712891 0)"/>
       <use xlink:href="#DejaVuSans-20" transform="translate(116.015625 0)"/>
       <use xlink:href="#DejaVuSans-70" transform="translate(147.802734 0)"/>
       <use xlink:href="#DejaVuSans-65" transform="translate(211.279297 0)"/>
       <use xlink:href="#DejaVuSans-72" transform="translate(272.802734 0)"/>
       <use xlink:href="#DejaVuSans-69" transform="translate(313.916016 0)"/>
       <use xlink:href="#DejaVuSans-6f" transform="translate(341.699219 0)"/>
       <use xlink:href="#DejaVuSans-64" transform="translate(402.880859 0)"/>
      </g>
     </g>
    </g>
    <g id="xtick_13">
     <g id="line2d_13">
      <g>
       <use xlink:href="#mba9aa240d4" x="942.549961" y="348.71834" style="stroke: #000000; stroke-width: 0.8"/>
      </g>
     </g>
     <g id="text_13">
      <!-- PD1 hyperpol -->
      <g transform="translate(913.637152 480.029938) rotate(-60) scale(0.2 -0.2)">
       <defs>
        <path id="DejaVuSans-68" d="M 3513 2113 
L 3513 0 
L 2938 0 
L 2938 2094 
Q 2938 2591 2744 2837 
Q 2550 3084 2163 3084 
Q 1697 3084 1428 2787 
Q 1159 2491 1159 1978 
L 1159 0 
L 581 0 
L 581 4863 
L 1159 4863 
L 1159 2956 
Q 1366 3272 1645 3428 
Q 1925 3584 2291 3584 
Q 2894 3584 3203 3211 
Q 3513 2838 3513 2113 
z
" transform="scale(0.015625)"/>
        <path id="DejaVuSans-79" d="M 2059 -325 
Q 1816 -950 1584 -1140 
Q 1353 -1331 966 -1331 
L 506 -1331 
L 506 -850 
L 844 -850 
Q 1081 -850 1212 -737 
Q 1344 -625 1503 -206 
L 1606 56 
L 191 3500 
L 800 3500 
L 1894 763 
L 2988 3500 
L 3597 3500 
L 2059 -325 
z
" transform="scale(0.015625)"/>
        <path id="DejaVuSans-6c" d="M 603 4863 
L 1178 4863 
L 1178 0 
L 603 0 
L 603 4863 
z
" transform="scale(0.015625)"/>
       </defs>
       <use xlink:href="#DejaVuSans-50"/>
       <use xlink:href="#DejaVuSans-44" transform="translate(60.302734 0)"/>
       <use xlink:href="#DejaVuSans-31" transform="translate(137.304688 0)"/>
       <use xlink:href="#DejaVuSans-20" transform="translate(200.927734 0)"/>
       <use xlink:href="#DejaVuSans-68" transform="translate(232.714844 0)"/>
       <use xlink:href="#DejaVuSans-79" transform="translate(296.09375 0)"/>
       <use xlink:href="#DejaVuSans-70" transform="translate(355.273438 0)"/>
       <use xlink:href="#DejaVuSans-65" transform="translate(418.75 0)"/>
       <use xlink:href="#DejaVuSans-72" transform="translate(480.273438 0)"/>
       <use xlink:href="#DejaVuSans-70" transform="translate(521.386719 0)"/>
       <use xlink:href="#DejaVuSans-6f" transform="translate(584.863281 0)"/>
       <use xlink:href="#DejaVuSans-6c" transform="translate(646.044922 0)"/>
      </g>
     </g>
    </g>
    <g id="xtick_14">
     <g id="line2d_14">
      <g>
       <use xlink:href="#mba9aa240d4" x="1002.158235" y="348.71834" style="stroke: #000000; stroke-width: 0.8"/>
      </g>
     </g>
     <g id="text_14">
      <!-- PD2 hyperpol -->
      <g transform="translate(973.245425 480.029938) rotate(-60) scale(0.2 -0.2)">
       <use xlink:href="#DejaVuSans-50"/>
       <use xlink:href="#DejaVuSans-44" transform="translate(60.302734 0)"/>
       <use xlink:href="#DejaVuSans-32" transform="translate(137.304688 0)"/>
       <use xlink:href="#DejaVuSans-20" transform="translate(200.927734 0)"/>
       <use xlink:href="#DejaVuSans-68" transform="translate(232.714844 0)"/>
       <use xlink:href="#DejaVuSans-79" transform="translate(296.09375 0)"/>
       <use xlink:href="#DejaVuSans-70" transform="translate(355.273438 0)"/>
       <use xlink:href="#DejaVuSans-65" transform="translate(418.75 0)"/>
       <use xlink:href="#DejaVuSans-72" transform="translate(480.273438 0)"/>
       <use xlink:href="#DejaVuSans-70" transform="translate(521.386719 0)"/>
       <use xlink:href="#DejaVuSans-6f" transform="translate(584.863281 0)"/>
       <use xlink:href="#DejaVuSans-6c" transform="translate(646.044922 0)"/>
      </g>
     </g>
    </g>
    <g id="xtick_15">
     <g id="line2d_15">
      <g>
       <use xlink:href="#mba9aa240d4" x="1061.766508" y="348.71834" style="stroke: #000000; stroke-width: 0.8"/>
      </g>
     </g>
     <g id="text_15">
      <!-- LP hyperpol -->
      <g transform="translate(1037.09901 465.323744) rotate(-60) scale(0.2 -0.2)">
       <use xlink:href="#DejaVuSans-4c"/>
       <use xlink:href="#DejaVuSans-50" transform="translate(55.712891 0)"/>
       <use xlink:href="#DejaVuSans-20" transform="translate(116.015625 0)"/>
       <use xlink:href="#DejaVuSans-68" transform="translate(147.802734 0)"/>
       <use xlink:href="#DejaVuSans-79" transform="translate(211.181641 0)"/>
       <use xlink:href="#DejaVuSans-70" transform="translate(270.361328 0)"/>
       <use xlink:href="#DejaVuSans-65" transform="translate(333.837891 0)"/>
       <use xlink:href="#DejaVuSans-72" transform="translate(395.361328 0)"/>
       <use xlink:href="#DejaVuSans-70" transform="translate(436.474609 0)"/>
       <use xlink:href="#DejaVuSans-6f" transform="translate(499.951172 0)"/>
       <use xlink:href="#DejaVuSans-6c" transform="translate(561.132812 0)"/>
      </g>
     </g>
    </g>
    <g id="xtick_16">
     <g id="line2d_16">
      <g>
       <use xlink:href="#mba9aa240d4" x="1121.374781" y="348.71834" style="stroke: #000000; stroke-width: 0.8"/>
      </g>
     </g>
     <g id="text_16">
      <!-- PD1 burst -->
      <g transform="translate(1101.555721 448.528264) rotate(-60) scale(0.2 -0.2)">
       <defs>
        <path id="DejaVuSans-62" d="M 3116 1747 
Q 3116 2381 2855 2742 
Q 2594 3103 2138 3103 
Q 1681 3103 1420 2742 
Q 1159 2381 1159 1747 
Q 1159 1113 1420 752 
Q 1681 391 2138 391 
Q 2594 391 2855 752 
Q 3116 1113 3116 1747 
z
M 1159 2969 
Q 1341 3281 1617 3432 
Q 1894 3584 2278 3584 
Q 2916 3584 3314 3078 
Q 3713 2572 3713 1747 
Q 3713 922 3314 415 
Q 2916 -91 2278 -91 
Q 1894 -91 1617 61 
Q 1341 213 1159 525 
L 1159 0 
L 581 0 
L 581 4863 
L 1159 4863 
L 1159 2969 
z
" transform="scale(0.015625)"/>
        <path id="DejaVuSans-75" d="M 544 1381 
L 544 3500 
L 1119 3500 
L 1119 1403 
Q 1119 906 1312 657 
Q 1506 409 1894 409 
Q 2359 409 2629 706 
Q 2900 1003 2900 1516 
L 2900 3500 
L 3475 3500 
L 3475 0 
L 2900 0 
L 2900 538 
Q 2691 219 2414 64 
Q 2138 -91 1772 -91 
Q 1169 -91 856 284 
Q 544 659 544 1381 
z
M 1991 3584 
L 1991 3584 
z
" transform="scale(0.015625)"/>
        <path id="DejaVuSans-73" d="M 2834 3397 
L 2834 2853 
Q 2591 2978 2328 3040 
Q 2066 3103 1784 3103 
Q 1356 3103 1142 2972 
Q 928 2841 928 2578 
Q 928 2378 1081 2264 
Q 1234 2150 1697 2047 
L 1894 2003 
Q 2506 1872 2764 1633 
Q 3022 1394 3022 966 
Q 3022 478 2636 193 
Q 2250 -91 1575 -91 
Q 1294 -91 989 -36 
Q 684 19 347 128 
L 347 722 
Q 666 556 975 473 
Q 1284 391 1588 391 
Q 1994 391 2212 530 
Q 2431 669 2431 922 
Q 2431 1156 2273 1281 
Q 2116 1406 1581 1522 
L 1381 1569 
Q 847 1681 609 1914 
Q 372 2147 372 2553 
Q 372 3047 722 3315 
Q 1072 3584 1716 3584 
Q 2034 3584 2315 3537 
Q 2597 3491 2834 3397 
z
" transform="scale(0.015625)"/>
        <path id="DejaVuSans-74" d="M 1172 4494 
L 1172 3500 
L 2356 3500 
L 2356 3053 
L 1172 3053 
L 1172 1153 
Q 1172 725 1289 603 
Q 1406 481 1766 481 
L 2356 481 
L 2356 0 
L 1766 0 
Q 1100 0 847 248 
Q 594 497 594 1153 
L 594 3053 
L 172 3053 
L 172 3500 
L 594 3500 
L 594 4494 
L 1172 4494 
z
" transform="scale(0.015625)"/>
       </defs>
       <use xlink:href="#DejaVuSans-50"/>
       <use xlink:href="#DejaVuSans-44" transform="translate(60.302734 0)"/>
       <use xlink:href="#DejaVuSans-31" transform="translate(137.304688 0)"/>
       <use xlink:href="#DejaVuSans-20" transform="translate(200.927734 0)"/>
       <use xlink:href="#DejaVuSans-62" transform="translate(232.714844 0)"/>
       <use xlink:href="#DejaVuSans-75" transform="translate(296.191406 0)"/>
       <use xlink:href="#DejaVuSans-72" transform="translate(359.570312 0)"/>
       <use xlink:href="#DejaVuSans-73" transform="translate(400.683594 0)"/>
       <use xlink:href="#DejaVuSans-74" transform="translate(452.783203 0)"/>
      </g>
     </g>
    </g>
    <g id="xtick_17">
     <g id="line2d_17">
      <g>
       <use xlink:href="#mba9aa240d4" x="1180.983054" y="348.71834" style="stroke: #000000; stroke-width: 0.8"/>
      </g>
     </g>
     <g id="text_17">
      <!-- PD2 burst -->
      <g transform="translate(1161.163994 448.528264) rotate(-60) scale(0.2 -0.2)">
       <use xlink:href="#DejaVuSans-50"/>
       <use xlink:href="#DejaVuSans-44" transform="translate(60.302734 0)"/>
       <use xlink:href="#DejaVuSans-32" transform="translate(137.304688 0)"/>
       <use xlink:href="#DejaVuSans-20" transform="translate(200.927734 0)"/>
       <use xlink:href="#DejaVuSans-62" transform="translate(232.714844 0)"/>
       <use xlink:href="#DejaVuSans-75" transform="translate(296.191406 0)"/>
       <use xlink:href="#DejaVuSans-72" transform="translate(359.570312 0)"/>
       <use xlink:href="#DejaVuSans-73" transform="translate(400.683594 0)"/>
       <use xlink:href="#DejaVuSans-74" transform="translate(452.783203 0)"/>
      </g>
     </g>
    </g>
    <g id="xtick_18">
     <g id="line2d_18">
      <g>
       <use xlink:href="#mba9aa240d4" x="1240.591327" y="348.71834" style="stroke: #000000; stroke-width: 0.8"/>
      </g>
     </g>
     <g id="text_18">
      <!-- LP burst -->
      <g transform="translate(1225.01758 433.82207) rotate(-60) scale(0.2 -0.2)">
       <use xlink:href="#DejaVuSans-4c"/>
       <use xlink:href="#DejaVuSans-50" transform="translate(55.712891 0)"/>
       <use xlink:href="#DejaVuSans-20" transform="translate(116.015625 0)"/>
       <use xlink:href="#DejaVuSans-62" transform="translate(147.802734 0)"/>
       <use xlink:href="#DejaVuSans-75" transform="translate(211.279297 0)"/>
       <use xlink:href="#DejaVuSans-72" transform="translate(274.658203 0)"/>
       <use xlink:href="#DejaVuSans-73" transform="translate(315.771484 0)"/>
       <use xlink:href="#DejaVuSans-74" transform="translate(367.871094 0)"/>
      </g>
     </g>
    </g>
   </g>
   <g id="matplotlib.axis_2">
    <g id="ytick_1">
     <g id="line2d_19">
      <defs>
       <path id="m4c97d6e77d" d="M 0 0 
L -3.5 0 
" style="stroke: #000000; stroke-width: 0.8"/>
      </defs>
      <g>
       <use xlink:href="#m4c97d6e77d" x="78.23" y="340.992716" style="stroke: #000000; stroke-width: 0.8"/>
      </g>
     </g>
     <g id="text_19">
      <!-- 0 -->
      <g transform="translate(58.505 348.591153) scale(0.2 -0.2)">
       <defs>
        <path id="DejaVuSans-30" d="M 2034 4250 
Q 1547 4250 1301 3770 
Q 1056 3291 1056 2328 
Q 1056 1369 1301 889 
Q 1547 409 2034 409 
Q 2525 409 2770 889 
Q 3016 1369 3016 2328 
Q 3016 3291 2770 3770 
Q 2525 4250 2034 4250 
z
M 2034 4750 
Q 2819 4750 3233 4129 
Q 3647 3509 3647 2328 
Q 3647 1150 3233 529 
Q 2819 -91 2034 -91 
Q 1250 -91 836 529 
Q 422 1150 422 2328 
Q 422 3509 836 4129 
Q 1250 4750 2034 4750 
z
" transform="scale(0.015625)"/>
       </defs>
       <use xlink:href="#DejaVuSans-30"/>
      </g>
     </g>
    </g>
    <g id="ytick_2">
     <g id="line2d_20">
      <g>
       <use xlink:href="#m4c97d6e77d" x="78.23" y="269.406389" style="stroke: #000000; stroke-width: 0.8"/>
      </g>
     </g>
     <g id="text_20">
      <!-- 20 -->
      <g transform="translate(45.78 277.004827) scale(0.2 -0.2)">
       <use xlink:href="#DejaVuSans-32"/>
       <use xlink:href="#DejaVuSans-30" transform="translate(63.623047 0)"/>
      </g>
     </g>
    </g>
    <g id="ytick_3">
     <g id="line2d_21">
      <g>
       <use xlink:href="#m4c97d6e77d" x="78.23" y="197.820063" style="stroke: #000000; stroke-width: 0.8"/>
      </g>
     </g>
     <g id="text_21">
      <!-- 40 -->
      <g transform="translate(45.78 205.418501) scale(0.2 -0.2)">
       <defs>
        <path id="DejaVuSans-34" d="M 2419 4116 
L 825 1625 
L 2419 1625 
L 2419 4116 
z
M 2253 4666 
L 3047 4666 
L 3047 1625 
L 3713 1625 
L 3713 1100 
L 3047 1100 
L 3047 0 
L 2419 0 
L 2419 1100 
L 313 1100 
L 313 1709 
L 2253 4666 
z
" transform="scale(0.015625)"/>
       </defs>
       <use xlink:href="#DejaVuSans-34"/>
       <use xlink:href="#DejaVuSans-30" transform="translate(63.623047 0)"/>
      </g>
     </g>
    </g>
    <g id="ytick_4">
     <g id="line2d_22">
      <g>
       <use xlink:href="#m4c97d6e77d" x="78.23" y="126.233737" style="stroke: #000000; stroke-width: 0.8"/>
      </g>
     </g>
     <g id="text_22">
      <!-- 60 -->
      <g transform="translate(45.78 133.832174) scale(0.2 -0.2)">
       <defs>
        <path id="DejaVuSans-36" d="M 2113 2584 
Q 1688 2584 1439 2293 
Q 1191 2003 1191 1497 
Q 1191 994 1439 701 
Q 1688 409 2113 409 
Q 2538 409 2786 701 
Q 3034 994 3034 1497 
Q 3034 2003 2786 2293 
Q 2538 2584 2113 2584 
z
M 3366 4563 
L 3366 3988 
Q 3128 4100 2886 4159 
Q 2644 4219 2406 4219 
Q 1781 4219 1451 3797 
Q 1122 3375 1075 2522 
Q 1259 2794 1537 2939 
Q 1816 3084 2150 3084 
Q 2853 3084 3261 2657 
Q 3669 2231 3669 1497 
Q 3669 778 3244 343 
Q 2819 -91 2113 -91 
Q 1303 -91 875 529 
Q 447 1150 447 2328 
Q 447 3434 972 4092 
Q 1497 4750 2381 4750 
Q 2619 4750 2861 4703 
Q 3103 4656 3366 4563 
z
" transform="scale(0.015625)"/>
       </defs>
       <use xlink:href="#DejaVuSans-36"/>
       <use xlink:href="#DejaVuSans-30" transform="translate(63.623047 0)"/>
      </g>
     </g>
    </g>
    <g id="ytick_5">
     <g id="line2d_23">
      <g>
       <use xlink:href="#m4c97d6e77d" x="78.23" y="54.647411" style="stroke: #000000; stroke-width: 0.8"/>
      </g>
     </g>
     <g id="text_23">
      <!-- 80 -->
      <g transform="translate(45.78 62.245848) scale(0.2 -0.2)">
       <defs>
        <path id="DejaVuSans-38" d="M 2034 2216 
Q 1584 2216 1326 1975 
Q 1069 1734 1069 1313 
Q 1069 891 1326 650 
Q 1584 409 2034 409 
Q 2484 409 2743 651 
Q 3003 894 3003 1313 
Q 3003 1734 2745 1975 
Q 2488 2216 2034 2216 
z
M 1403 2484 
Q 997 2584 770 2862 
Q 544 3141 544 3541 
Q 544 4100 942 4425 
Q 1341 4750 2034 4750 
Q 2731 4750 3128 4425 
Q 3525 4100 3525 3541 
Q 3525 3141 3298 2862 
Q 3072 2584 2669 2484 
Q 3125 2378 3379 2068 
Q 3634 1759 3634 1313 
Q 3634 634 3220 271 
Q 2806 -91 2034 -91 
Q 1263 -91 848 271 
Q 434 634 434 1313 
Q 434 1759 690 2068 
Q 947 2378 1403 2484 
z
M 1172 3481 
Q 1172 3119 1398 2916 
Q 1625 2713 2034 2713 
Q 2441 2713 2670 2916 
Q 2900 3119 2900 3481 
Q 2900 3844 2670 4047 
Q 2441 4250 2034 4250 
Q 1625 4250 1398 4047 
Q 1172 3844 1172 3481 
z
" transform="scale(0.015625)"/>
       </defs>
       <use xlink:href="#DejaVuSans-38"/>
       <use xlink:href="#DejaVuSans-30" transform="translate(63.623047 0)"/>
      </g>
     </g>
    </g>
    <g id="text_24">
     <!-- Coefficient of Variation (CV) -->
     <g transform="translate(37.620625 324.085732) rotate(-90) scale(0.2 -0.2)">
      <defs>
       <path id="DejaVuSans-66" d="M 2375 4863 
L 2375 4384 
L 1825 4384 
Q 1516 4384 1395 4259 
Q 1275 4134 1275 3809 
L 1275 3500 
L 2222 3500 
L 2222 3053 
L 1275 3053 
L 1275 0 
L 697 0 
L 697 3053 
L 147 3053 
L 147 3500 
L 697 3500 
L 697 3744 
Q 697 4328 969 4595 
Q 1241 4863 1831 4863 
L 2375 4863 
z
" transform="scale(0.015625)"/>
       <path id="DejaVuSans-63" d="M 3122 3366 
L 3122 2828 
Q 2878 2963 2633 3030 
Q 2388 3097 2138 3097 
Q 1578 3097 1268 2742 
Q 959 2388 959 1747 
Q 959 1106 1268 751 
Q 1578 397 2138 397 
Q 2388 397 2633 464 
Q 2878 531 3122 666 
L 3122 134 
Q 2881 22 2623 -34 
Q 2366 -91 2075 -91 
Q 1284 -91 818 406 
Q 353 903 353 1747 
Q 353 2603 823 3093 
Q 1294 3584 2113 3584 
Q 2378 3584 2631 3529 
Q 2884 3475 3122 3366 
z
" transform="scale(0.015625)"/>
       <path id="DejaVuSans-6e" d="M 3513 2113 
L 3513 0 
L 2938 0 
L 2938 2094 
Q 2938 2591 2744 2837 
Q 2550 3084 2163 3084 
Q 1697 3084 1428 2787 
Q 1159 2491 1159 1978 
L 1159 0 
L 581 0 
L 581 3500 
L 1159 3500 
L 1159 2956 
Q 1366 3272 1645 3428 
Q 1925 3584 2291 3584 
Q 2894 3584 3203 3211 
Q 3513 2838 3513 2113 
z
" transform="scale(0.015625)"/>
       <path id="DejaVuSans-61" d="M 2194 1759 
Q 1497 1759 1228 1600 
Q 959 1441 959 1056 
Q 959 750 1161 570 
Q 1363 391 1709 391 
Q 2188 391 2477 730 
Q 2766 1069 2766 1631 
L 2766 1759 
L 2194 1759 
z
M 3341 1997 
L 3341 0 
L 2766 0 
L 2766 531 
Q 2569 213 2275 61 
Q 1981 -91 1556 -91 
Q 1019 -91 701 211 
Q 384 513 384 1019 
Q 384 1609 779 1909 
Q 1175 2209 1959 2209 
L 2766 2209 
L 2766 2266 
Q 2766 2663 2505 2880 
Q 2244 3097 1772 3097 
Q 1472 3097 1187 3025 
Q 903 2953 641 2809 
L 641 3341 
Q 956 3463 1253 3523 
Q 1550 3584 1831 3584 
Q 2591 3584 2966 3190 
Q 3341 2797 3341 1997 
z
" transform="scale(0.015625)"/>
       <path id="DejaVuSans-28" d="M 1984 4856 
Q 1566 4138 1362 3434 
Q 1159 2731 1159 2009 
Q 1159 1288 1364 580 
Q 1569 -128 1984 -844 
L 1484 -844 
Q 1016 -109 783 600 
Q 550 1309 550 2009 
Q 550 2706 781 3412 
Q 1013 4119 1484 4856 
L 1984 4856 
z
" transform="scale(0.015625)"/>
       <path id="DejaVuSans-29" d="M 513 4856 
L 1013 4856 
Q 1481 4119 1714 3412 
Q 1947 2706 1947 2009 
Q 1947 1309 1714 600 
Q 1481 -109 1013 -844 
L 513 -844 
Q 928 -128 1133 580 
Q 1338 1288 1338 2009 
Q 1338 2731 1133 3434 
Q 928 4138 513 4856 
z
" transform="scale(0.015625)"/>
      </defs>
      <use xlink:href="#DejaVuSans-43"/>
      <use xlink:href="#DejaVuSans-6f" transform="translate(69.824219 0)"/>
      <use xlink:href="#DejaVuSans-65" transform="translate(131.005859 0)"/>
      <use xlink:href="#DejaVuSans-66" transform="translate(192.529297 0)"/>
      <use xlink:href="#DejaVuSans-66" transform="translate(227.734375 0)"/>
      <use xlink:href="#DejaVuSans-69" transform="translate(262.939453 0)"/>
      <use xlink:href="#DejaVuSans-63" transform="translate(290.722656 0)"/>
      <use xlink:href="#DejaVuSans-69" transform="translate(345.703125 0)"/>
      <use xlink:href="#DejaVuSans-65" transform="translate(373.486328 0)"/>
      <use xlink:href="#DejaVuSans-6e" transform="translate(435.009766 0)"/>
      <use xlink:href="#DejaVuSans-74" transform="translate(498.388672 0)"/>
      <use xlink:href="#DejaVuSans-20" transform="translate(537.597656 0)"/>
      <use xlink:href="#DejaVuSans-6f" transform="translate(569.384766 0)"/>
      <use xlink:href="#DejaVuSans-66" transform="translate(630.566406 0)"/>
      <use xlink:href="#DejaVuSans-20" transform="translate(665.771484 0)"/>
      <use xlink:href="#DejaVuSans-56" transform="translate(697.558594 0)"/>
      <use xlink:href="#DejaVuSans-61" transform="translate(758.216797 0)"/>
      <use xlink:href="#DejaVuSans-72" transform="translate(819.496094 0)"/>
      <use xlink:href="#DejaVuSans-69" transform="translate(860.609375 0)"/>
      <use xlink:href="#DejaVuSans-61" transform="translate(888.392578 0)"/>
      <use xlink:href="#DejaVuSans-74" transform="translate(949.671875 0)"/>
      <use xlink:href="#DejaVuSans-69" transform="translate(988.880859 0)"/>
      <use xlink:href="#DejaVuSans-6f" transform="translate(1016.664062 0)"/>
      <use xlink:href="#DejaVuSans-6e" transform="translate(1077.845703 0)"/>
      <use xlink:href="#DejaVuSans-20" transform="translate(1141.224609 0)"/>
      <use xlink:href="#DejaVuSans-28" transform="translate(1173.011719 0)"/>
      <use xlink:href="#DejaVuSans-43" transform="translate(1212.025391 0)"/>
      <use xlink:href="#DejaVuSans-56" transform="translate(1281.849609 0)"/>
      <use xlink:href="#DejaVuSans-29" transform="translate(1350.257812 0)"/>
     </g>
    </g>
   </g>
   <g id="patch_3">
    <path d="M 93.132068 314.322485 
L 122.936205 314.322485 
L 122.936205 278.063655 
L 93.132068 278.063655 
L 93.132068 314.322485 
z
" clip-path="url(#pf6f85fbd63)" style="fill: #1f42b4; opacity: 0.7; stroke: #000000; stroke-linejoin: miter"/>
   </g>
   <g id="line2d_24">
    <path d="M 108.034137 314.322485 
L 108.034137 327.891325 
" clip-path="url(#pf6f85fbd63)" style="fill: none; stroke: #000000; stroke-linecap: square"/>
   </g>
   <g id="line2d_25">
    <path d="M 108.034137 278.063655 
L 108.034137 238.670012 
" clip-path="url(#pf6f85fbd63)" style="fill: none; stroke: #000000; stroke-linecap: square"/>
   </g>
   <g id="line2d_26">
    <path d="M 100.583102 327.891325 
L 115.485171 327.891325 
" clip-path="url(#pf6f85fbd63)" style="fill: none; stroke: #000000; stroke-linecap: square"/>
   </g>
   <g id="line2d_27">
    <path d="M 100.583102 238.670012 
L 115.485171 238.670012 
" clip-path="url(#pf6f85fbd63)" style="fill: none; stroke: #000000; stroke-linecap: square"/>
   </g>
   <g id="patch_4">
    <path d="M 152.740341 308.143518 
L 182.544478 308.143518 
L 182.544478 237.443988 
L 152.740341 237.443988 
L 152.740341 308.143518 
z
" clip-path="url(#pf6f85fbd63)" style="fill: #1f42b4; opacity: 0.7; stroke: #000000; stroke-linejoin: miter"/>
   </g>
   <g id="line2d_28">
    <path d="M 167.64241 308.143518 
L 167.64241 324.880526 
" clip-path="url(#pf6f85fbd63)" style="fill: none; stroke: #000000; stroke-linecap: square"/>
   </g>
   <g id="line2d_29">
    <path d="M 167.64241 237.443988 
L 167.64241 201.306842 
" clip-path="url(#pf6f85fbd63)" style="fill: none; stroke: #000000; stroke-linecap: square"/>
   </g>
   <g id="line2d_30">
    <path d="M 160.191376 324.880526 
L 175.093444 324.880526 
" clip-path="url(#pf6f85fbd63)" style="fill: none; stroke: #000000; stroke-linecap: square"/>
   </g>
   <g id="line2d_31">
    <path d="M 160.191376 201.306842 
L 175.093444 201.306842 
" clip-path="url(#pf6f85fbd63)" style="fill: none; stroke: #000000; stroke-linecap: square"/>
   </g>
   <g id="patch_5">
    <path d="M 212.348615 283.864282 
L 242.152751 283.864282 
L 242.152751 213.018971 
L 212.348615 213.018971 
L 212.348615 283.864282 
z
" clip-path="url(#pf6f85fbd63)" style="fill: #1f42b4; opacity: 0.7; stroke: #000000; stroke-linejoin: miter"/>
   </g>
   <g id="line2d_32">
    <path d="M 227.250683 283.864282 
L 227.250683 322.407099 
" clip-path="url(#pf6f85fbd63)" style="fill: none; stroke: #000000; stroke-linecap: square"/>
   </g>
   <g id="line2d_33">
    <path d="M 227.250683 213.018971 
L 227.250683 107.131253 
" clip-path="url(#pf6f85fbd63)" style="fill: none; stroke: #000000; stroke-linecap: square"/>
   </g>
   <g id="line2d_34">
    <path d="M 219.799649 322.407099 
L 234.701717 322.407099 
" clip-path="url(#pf6f85fbd63)" style="fill: none; stroke: #000000; stroke-linecap: square"/>
   </g>
   <g id="line2d_35">
    <path d="M 219.799649 107.131253 
L 234.701717 107.131253 
" clip-path="url(#pf6f85fbd63)" style="fill: none; stroke: #000000; stroke-linecap: square"/>
   </g>
   <g id="patch_6">
    <path d="M 331.565161 308.584181 
L 361.369298 308.584181 
L 361.369298 235.489298 
L 331.565161 235.489298 
L 331.565161 308.584181 
z
" clip-path="url(#pf6f85fbd63)" style="fill: #19ac31; opacity: 0.7; stroke: #000000; stroke-linejoin: miter"/>
   </g>
   <g id="line2d_36">
    <path d="M 346.467229 308.584181 
L 346.467229 325.101369 
" clip-path="url(#pf6f85fbd63)" style="fill: none; stroke: #000000; stroke-linecap: square"/>
   </g>
   <g id="line2d_37">
    <path d="M 346.467229 235.489298 
L 346.467229 152.124421 
" clip-path="url(#pf6f85fbd63)" style="fill: none; stroke: #000000; stroke-linecap: square"/>
   </g>
   <g id="line2d_38">
    <path d="M 339.016195 325.101369 
L 353.918264 325.101369 
" clip-path="url(#pf6f85fbd63)" style="fill: none; stroke: #000000; stroke-linecap: square"/>
   </g>
   <g id="line2d_39">
    <path d="M 339.016195 152.124421 
L 353.918264 152.124421 
" clip-path="url(#pf6f85fbd63)" style="fill: none; stroke: #000000; stroke-linecap: square"/>
   </g>
   <g id="patch_7">
    <path d="M 391.173434 294.170185 
L 420.977571 294.170185 
L 420.977571 240.254931 
L 391.173434 240.254931 
L 391.173434 294.170185 
z
" clip-path="url(#pf6f85fbd63)" style="fill: #19ac31; opacity: 0.7; stroke: #000000; stroke-linejoin: miter"/>
   </g>
   <g id="line2d_40">
    <path d="M 406.075503 294.170185 
L 406.075503 325.316815 
" clip-path="url(#pf6f85fbd63)" style="fill: none; stroke: #000000; stroke-linecap: square"/>
   </g>
   <g id="line2d_41">
    <path d="M 406.075503 240.254931 
L 406.075503 165.777777 
" clip-path="url(#pf6f85fbd63)" style="fill: none; stroke: #000000; stroke-linecap: square"/>
   </g>
   <g id="line2d_42">
    <path d="M 398.624468 325.316815 
L 413.526537 325.316815 
" clip-path="url(#pf6f85fbd63)" style="fill: none; stroke: #000000; stroke-linecap: square"/>
   </g>
   <g id="line2d_43">
    <path d="M 398.624468 165.777777 
L 413.526537 165.777777 
" clip-path="url(#pf6f85fbd63)" style="fill: none; stroke: #000000; stroke-linecap: square"/>
   </g>
   <g id="patch_8">
    <path d="M 450.781707 295.476173 
L 480.585844 295.476173 
L 480.585844 227.255214 
L 450.781707 227.255214 
L 450.781707 295.476173 
z
" clip-path="url(#pf6f85fbd63)" style="fill: #19ac31; opacity: 0.7; stroke: #000000; stroke-linejoin: miter"/>
   </g>
   <g id="line2d_44">
    <path d="M 465.683776 295.476173 
L 465.683776 316.29604 
" clip-path="url(#pf6f85fbd63)" style="fill: none; stroke: #000000; stroke-linecap: square"/>
   </g>
   <g id="line2d_45">
    <path d="M 465.683776 227.255214 
L 465.683776 160.558822 
" clip-path="url(#pf6f85fbd63)" style="fill: none; stroke: #000000; stroke-linecap: square"/>
   </g>
   <g id="line2d_46">
    <path d="M 458.232742 316.29604 
L 473.13481 316.29604 
" clip-path="url(#pf6f85fbd63)" style="fill: none; stroke: #000000; stroke-linecap: square"/>
   </g>
   <g id="line2d_47">
    <path d="M 458.232742 160.558822 
L 473.13481 160.558822 
" clip-path="url(#pf6f85fbd63)" style="fill: none; stroke: #000000; stroke-linecap: square"/>
   </g>
   <g id="patch_9">
    <path d="M 510.389981 320.577144 
L 540.194117 320.577144 
L 540.194117 302.292037 
L 510.389981 302.292037 
L 510.389981 320.577144 
z
" clip-path="url(#pf6f85fbd63)" style="fill: #19ac31; opacity: 0.7; stroke: #000000; stroke-linejoin: miter"/>
   </g>
   <g id="line2d_48">
    <path d="M 525.292049 320.577144 
L 525.292049 332.102744 
" clip-path="url(#pf6f85fbd63)" style="fill: none; stroke: #000000; stroke-linecap: square"/>
   </g>
   <g id="line2d_49">
    <path d="M 525.292049 302.292037 
L 525.292049 276.273639 
" clip-path="url(#pf6f85fbd63)" style="fill: none; stroke: #000000; stroke-linecap: square"/>
   </g>
   <g id="line2d_50">
    <path d="M 517.841015 332.102744 
L 532.743083 332.102744 
" clip-path="url(#pf6f85fbd63)" style="fill: none; stroke: #000000; stroke-linecap: square"/>
   </g>
   <g id="line2d_51">
    <path d="M 517.841015 276.273639 
L 532.743083 276.273639 
" clip-path="url(#pf6f85fbd63)" style="fill: none; stroke: #000000; stroke-linecap: square"/>
   </g>
   <g id="patch_10">
    <path d="M 569.998254 317.515451 
L 599.80239 317.515451 
L 599.80239 295.30481 
L 569.998254 295.30481 
L 569.998254 317.515451 
z
" clip-path="url(#pf6f85fbd63)" style="fill: #19ac31; opacity: 0.7; stroke: #000000; stroke-linejoin: miter"/>
   </g>
   <g id="line2d_52">
    <path d="M 584.900322 317.515451 
L 584.900322 323.292891 
" clip-path="url(#pf6f85fbd63)" style="fill: none; stroke: #000000; stroke-linecap: square"/>
   </g>
   <g id="line2d_53">
    <path d="M 584.900322 295.30481 
L 584.900322 268.161379 
" clip-path="url(#pf6f85fbd63)" style="fill: none; stroke: #000000; stroke-linecap: square"/>
   </g>
   <g id="line2d_54">
    <path d="M 577.449288 323.292891 
L 592.351356 323.292891 
" clip-path="url(#pf6f85fbd63)" style="fill: none; stroke: #000000; stroke-linecap: square"/>
   </g>
   <g id="line2d_55">
    <path d="M 577.449288 268.161379 
L 592.351356 268.161379 
" clip-path="url(#pf6f85fbd63)" style="fill: none; stroke: #000000; stroke-linecap: square"/>
   </g>
   <g id="patch_11">
    <path d="M 629.606527 317.575055 
L 659.410664 317.575055 
L 659.410664 285.232189 
L 629.606527 285.232189 
L 629.606527 317.575055 
z
" clip-path="url(#pf6f85fbd63)" style="fill: #19ac31; opacity: 0.7; stroke: #000000; stroke-linejoin: miter"/>
   </g>
   <g id="line2d_56">
    <path d="M 644.508595 317.575055 
L 644.508595 329.196165 
" clip-path="url(#pf6f85fbd63)" style="fill: none; stroke: #000000; stroke-linecap: square"/>
   </g>
   <g id="line2d_57">
    <path d="M 644.508595 285.232189 
L 644.508595 260.257247 
" clip-path="url(#pf6f85fbd63)" style="fill: none; stroke: #000000; stroke-linecap: square"/>
   </g>
   <g id="line2d_58">
    <path d="M 637.057561 329.196165 
L 651.95963 329.196165 
" clip-path="url(#pf6f85fbd63)" style="fill: none; stroke: #000000; stroke-linecap: square"/>
   </g>
   <g id="line2d_59">
    <path d="M 637.057561 260.257247 
L 651.95963 260.257247 
" clip-path="url(#pf6f85fbd63)" style="fill: none; stroke: #000000; stroke-linecap: square"/>
   </g>
   <g id="patch_12">
    <path d="M 748.823073 310.162332 
L 778.62721 310.162332 
L 778.62721 212.832156 
L 748.823073 212.832156 
L 748.823073 310.162332 
z
" clip-path="url(#pf6f85fbd63)" style="fill: #fd7600; opacity: 0.7; stroke: #000000; stroke-linejoin: miter"/>
   </g>
   <g id="line2d_60">
    <path d="M 763.725142 310.162332 
L 763.725142 333.849324 
" clip-path="url(#pf6f85fbd63)" style="fill: none; stroke: #000000; stroke-linecap: square"/>
   </g>
   <g id="line2d_61">
    <path d="M 763.725142 212.832156 
L 763.725142 70.633329 
" clip-path="url(#pf6f85fbd63)" style="fill: none; stroke: #000000; stroke-linecap: square"/>
   </g>
   <g id="line2d_62">
    <path d="M 756.274108 333.849324 
L 771.176176 333.849324 
" clip-path="url(#pf6f85fbd63)" style="fill: none; stroke: #000000; stroke-linecap: square"/>
   </g>
   <g id="line2d_63">
    <path d="M 756.274108 70.633329 
L 771.176176 70.633329 
" clip-path="url(#pf6f85fbd63)" style="fill: none; stroke: #000000; stroke-linecap: square"/>
   </g>
   <g id="patch_13">
    <path d="M 808.431347 310.195319 
L 838.235483 310.195319 
L 838.235483 213.244764 
L 808.431347 213.244764 
L 808.431347 310.195319 
z
" clip-path="url(#pf6f85fbd63)" style="fill: #fd7600; opacity: 0.7; stroke: #000000; stroke-linejoin: miter"/>
   </g>
   <g id="line2d_64">
    <path d="M 823.333415 310.195319 
L 823.333415 333.72854 
" clip-path="url(#pf6f85fbd63)" style="fill: none; stroke: #000000; stroke-linecap: square"/>
   </g>
   <g id="line2d_65">
    <path d="M 823.333415 213.244764 
L 823.333415 70.948879 
" clip-path="url(#pf6f85fbd63)" style="fill: none; stroke: #000000; stroke-linecap: square"/>
   </g>
   <g id="line2d_66">
    <path d="M 815.882381 333.72854 
L 830.784449 333.72854 
" clip-path="url(#pf6f85fbd63)" style="fill: none; stroke: #000000; stroke-linecap: square"/>
   </g>
   <g id="line2d_67">
    <path d="M 815.882381 70.948879 
L 830.784449 70.948879 
" clip-path="url(#pf6f85fbd63)" style="fill: none; stroke: #000000; stroke-linecap: square"/>
   </g>
   <g id="patch_14">
    <path d="M 868.03962 309.513222 
L 897.843756 309.513222 
L 897.843756 213.361546 
L 868.03962 213.361546 
L 868.03962 309.513222 
z
" clip-path="url(#pf6f85fbd63)" style="fill: #fd7600; opacity: 0.7; stroke: #000000; stroke-linejoin: miter"/>
   </g>
   <g id="line2d_68">
    <path d="M 882.941688 309.513222 
L 882.941688 333.677509 
" clip-path="url(#pf6f85fbd63)" style="fill: none; stroke: #000000; stroke-linecap: square"/>
   </g>
   <g id="line2d_69">
    <path d="M 882.941688 213.361546 
L 882.941688 70.98839 
" clip-path="url(#pf6f85fbd63)" style="fill: none; stroke: #000000; stroke-linecap: square"/>
   </g>
   <g id="line2d_70">
    <path d="M 875.490654 333.677509 
L 890.392722 333.677509 
" clip-path="url(#pf6f85fbd63)" style="fill: none; stroke: #000000; stroke-linecap: square"/>
   </g>
   <g id="line2d_71">
    <path d="M 875.490654 70.98839 
L 890.392722 70.98839 
" clip-path="url(#pf6f85fbd63)" style="fill: none; stroke: #000000; stroke-linecap: square"/>
   </g>
   <g id="patch_15">
    <path d="M 927.647893 304.442192 
L 957.45203 304.442192 
L 957.45203 196.203064 
L 927.647893 196.203064 
L 927.647893 304.442192 
z
" clip-path="url(#pf6f85fbd63)" style="fill: #fd7600; opacity: 0.7; stroke: #000000; stroke-linejoin: miter"/>
   </g>
   <g id="line2d_72">
    <path d="M 942.549961 304.442192 
L 942.549961 328.388134 
" clip-path="url(#pf6f85fbd63)" style="fill: none; stroke: #000000; stroke-linecap: square"/>
   </g>
   <g id="line2d_73">
    <path d="M 942.549961 196.203064 
L 942.549961 43.342439 
" clip-path="url(#pf6f85fbd63)" style="fill: none; stroke: #000000; stroke-linecap: square"/>
   </g>
   <g id="line2d_74">
    <path d="M 935.098927 328.388134 
L 950.000995 328.388134 
" clip-path="url(#pf6f85fbd63)" style="fill: none; stroke: #000000; stroke-linecap: square"/>
   </g>
   <g id="line2d_75">
    <path d="M 935.098927 43.342439 
L 950.000995 43.342439 
" clip-path="url(#pf6f85fbd63)" style="fill: none; stroke: #000000; stroke-linecap: square"/>
   </g>
   <g id="patch_16">
    <path d="M 987.256166 304.979849 
L 1017.060303 304.979849 
L 1017.060303 203.971402 
L 987.256166 203.971402 
L 987.256166 304.979849 
z
" clip-path="url(#pf6f85fbd63)" style="fill: #fd7600; opacity: 0.7; stroke: #000000; stroke-linejoin: miter"/>
   </g>
   <g id="line2d_76">
    <path d="M 1002.158235 304.979849 
L 1002.158235 328.529237 
" clip-path="url(#pf6f85fbd63)" style="fill: none; stroke: #000000; stroke-linecap: square"/>
   </g>
   <g id="line2d_77">
    <path d="M 1002.158235 203.971402 
L 1002.158235 97.266346 
" clip-path="url(#pf6f85fbd63)" style="fill: none; stroke: #000000; stroke-linecap: square"/>
   </g>
   <g id="line2d_78">
    <path d="M 994.7072 328.529237 
L 1009.609269 328.529237 
" clip-path="url(#pf6f85fbd63)" style="fill: none; stroke: #000000; stroke-linecap: square"/>
   </g>
   <g id="line2d_79">
    <path d="M 994.7072 97.266346 
L 1009.609269 97.266346 
" clip-path="url(#pf6f85fbd63)" style="fill: none; stroke: #000000; stroke-linecap: square"/>
   </g>
   <g id="patch_17">
    <path d="M 1046.864439 304.185266 
L 1076.668576 304.185266 
L 1076.668576 189.192101 
L 1046.864439 189.192101 
L 1046.864439 304.185266 
z
" clip-path="url(#pf6f85fbd63)" style="fill: #fd7600; opacity: 0.7; stroke: #000000; stroke-linejoin: miter"/>
   </g>
   <g id="line2d_80">
    <path d="M 1061.766508 304.185266 
L 1061.766508 329.132857 
" clip-path="url(#pf6f85fbd63)" style="fill: none; stroke: #000000; stroke-linecap: square"/>
   </g>
   <g id="line2d_81">
    <path d="M 1061.766508 189.192101 
L 1061.766508 36.469015 
" clip-path="url(#pf6f85fbd63)" style="fill: none; stroke: #000000; stroke-linecap: square"/>
   </g>
   <g id="line2d_82">
    <path d="M 1054.315474 329.132857 
L 1069.217542 329.132857 
" clip-path="url(#pf6f85fbd63)" style="fill: none; stroke: #000000; stroke-linecap: square"/>
   </g>
   <g id="line2d_83">
    <path d="M 1054.315474 36.469015 
L 1069.217542 36.469015 
" clip-path="url(#pf6f85fbd63)" style="fill: none; stroke: #000000; stroke-linecap: square"/>
   </g>
   <g id="patch_18">
    <path d="M 1106.472713 312.25376 
L 1136.276849 312.25376 
L 1136.276849 291.506572 
L 1106.472713 291.506572 
L 1106.472713 312.25376 
z
" clip-path="url(#pf6f85fbd63)" style="fill: #fd7600; opacity: 0.7; stroke: #000000; stroke-linejoin: miter"/>
   </g>
   <g id="line2d_84">
    <path d="M 1121.374781 312.25376 
L 1121.374781 332.069438 
" clip-path="url(#pf6f85fbd63)" style="fill: none; stroke: #000000; stroke-linecap: square"/>
   </g>
   <g id="line2d_85">
    <path d="M 1121.374781 291.506572 
L 1121.374781 265.477198 
" clip-path="url(#pf6f85fbd63)" style="fill: none; stroke: #000000; stroke-linecap: square"/>
   </g>
   <g id="line2d_86">
    <path d="M 1113.923747 332.069438 
L 1128.825815 332.069438 
" clip-path="url(#pf6f85fbd63)" style="fill: none; stroke: #000000; stroke-linecap: square"/>
   </g>
   <g id="line2d_87">
    <path d="M 1113.923747 265.477198 
L 1128.825815 265.477198 
" clip-path="url(#pf6f85fbd63)" style="fill: none; stroke: #000000; stroke-linecap: square"/>
   </g>
   <g id="patch_19">
    <path d="M 1166.080986 306.952002 
L 1195.885122 306.952002 
L 1195.885122 292.558043 
L 1166.080986 292.558043 
L 1166.080986 306.952002 
z
" clip-path="url(#pf6f85fbd63)" style="fill: #fd7600; opacity: 0.7; stroke: #000000; stroke-linejoin: miter"/>
   </g>
   <g id="line2d_88">
    <path d="M 1180.983054 306.952002 
L 1180.983054 319.818726 
" clip-path="url(#pf6f85fbd63)" style="fill: none; stroke: #000000; stroke-linecap: square"/>
   </g>
   <g id="line2d_89">
    <path d="M 1180.983054 292.558043 
L 1180.983054 282.171915 
" clip-path="url(#pf6f85fbd63)" style="fill: none; stroke: #000000; stroke-linecap: square"/>
   </g>
   <g id="line2d_90">
    <path d="M 1173.53202 319.818726 
L 1188.434088 319.818726 
" clip-path="url(#pf6f85fbd63)" style="fill: none; stroke: #000000; stroke-linecap: square"/>
   </g>
   <g id="line2d_91">
    <path d="M 1173.53202 282.171915 
L 1188.434088 282.171915 
" clip-path="url(#pf6f85fbd63)" style="fill: none; stroke: #000000; stroke-linecap: square"/>
   </g>
   <g id="patch_20">
    <path d="M 1225.689259 297.130296 
L 1255.493396 297.130296 
L 1255.493396 260.132376 
L 1225.689259 260.132376 
L 1225.689259 297.130296 
z
" clip-path="url(#pf6f85fbd63)" style="fill: #fd7600; opacity: 0.7; stroke: #000000; stroke-linejoin: miter"/>
   </g>
   <g id="line2d_92">
    <path d="M 1240.591327 297.130296 
L 1240.591327 321.456657 
" clip-path="url(#pf6f85fbd63)" style="fill: none; stroke: #000000; stroke-linecap: square"/>
   </g>
   <g id="line2d_93">
    <path d="M 1240.591327 260.132376 
L 1240.591327 210.683668 
" clip-path="url(#pf6f85fbd63)" style="fill: none; stroke: #000000; stroke-linecap: square"/>
   </g>
   <g id="line2d_94">
    <path d="M 1233.140293 321.456657 
L 1248.042361 321.456657 
" clip-path="url(#pf6f85fbd63)" style="fill: none; stroke: #000000; stroke-linecap: square"/>
   </g>
   <g id="line2d_95">
    <path d="M 1233.140293 210.683668 
L 1248.042361 210.683668 
" clip-path="url(#pf6f85fbd63)" style="fill: none; stroke: #000000; stroke-linecap: square"/>
   </g>
   <g id="line2d_96">
    <path d="M 93.132068 306.313843 
L 122.936205 306.313843 
" clip-path="url(#pf6f85fbd63)" style="fill: none; stroke: #000000"/>
   </g>
   <g id="line2d_97">
    <defs>
     <path id="mc74c10825c" d="M 0 3.5 
C 0.928211 3.5 1.81853 3.131218 2.474874 2.474874 
C 3.131218 1.81853 3.5 0.928211 3.5 0 
C 3.5 -0.928211 3.131218 -1.81853 2.474874 -2.474874 
C 1.81853 -3.131218 0.928211 -3.5 0 -3.5 
C -0.928211 -3.5 -1.81853 -3.131218 -2.474874 -2.474874 
C -3.131218 -1.81853 -3.5 -0.928211 -3.5 0 
C -3.5 0.928211 -3.131218 1.81853 -2.474874 2.474874 
C -1.81853 3.131218 -0.928211 3.5 0 3.5 
z
" style="stroke: #000000"/>
    </defs>
    <g clip-path="url(#pf6f85fbd63)">
     <use xlink:href="#mc74c10825c" x="108.034137" y="288.415791" style="fill: #ffffff; stroke: #000000"/>
    </g>
   </g>
   <g id="line2d_98">
    <path d="M 152.740341 267.548631 
L 182.544478 267.548631 
" clip-path="url(#pf6f85fbd63)" style="fill: none; stroke: #000000"/>
   </g>
   <g id="line2d_99">
    <g clip-path="url(#pf6f85fbd63)">
     <use xlink:href="#mc74c10825c" x="167.64241" y="256.449718" style="fill: #ffffff; stroke: #000000"/>
    </g>
   </g>
   <g id="line2d_100">
    <path d="M 212.348615 258.299295 
L 242.152751 258.299295 
" clip-path="url(#pf6f85fbd63)" style="fill: none; stroke: #000000"/>
   </g>
   <g id="line2d_101">
    <g clip-path="url(#pf6f85fbd63)">
     <use xlink:href="#mc74c10825c" x="227.250683" y="235.429676" style="fill: #ffffff; stroke: #000000"/>
    </g>
   </g>
   <g id="line2d_102">
    <path d="M 331.565161 259.060093 
L 361.369298 259.060093 
" clip-path="url(#pf6f85fbd63)" style="fill: none; stroke: #000000"/>
   </g>
   <g id="line2d_103">
    <g clip-path="url(#pf6f85fbd63)">
     <use xlink:href="#mc74c10825c" x="346.467229" y="255.021854" style="fill: #ffffff; stroke: #000000"/>
    </g>
   </g>
   <g id="line2d_104">
    <path d="M 391.173434 252.492528 
L 420.977571 252.492528 
" clip-path="url(#pf6f85fbd63)" style="fill: none; stroke: #000000"/>
   </g>
   <g id="line2d_105">
    <g clip-path="url(#pf6f85fbd63)">
     <use xlink:href="#mc74c10825c" x="406.075503" y="248.982703" style="fill: #ffffff; stroke: #000000"/>
    </g>
   </g>
   <g id="line2d_106">
    <path d="M 450.781707 274.811801 
L 480.585844 274.811801 
" clip-path="url(#pf6f85fbd63)" style="fill: none; stroke: #000000"/>
   </g>
   <g id="line2d_107">
    <g clip-path="url(#pf6f85fbd63)">
     <use xlink:href="#mc74c10825c" x="465.683776" y="253.524423" style="fill: #ffffff; stroke: #000000"/>
    </g>
   </g>
   <g id="line2d_108">
    <path d="M 510.389981 313.957779 
L 540.194117 313.957779 
" clip-path="url(#pf6f85fbd63)" style="fill: none; stroke: #000000"/>
   </g>
   <g id="line2d_109">
    <g clip-path="url(#pf6f85fbd63)">
     <use xlink:href="#mc74c10825c" x="525.292049" y="309.380869" style="fill: #ffffff; stroke: #000000"/>
    </g>
   </g>
   <g id="line2d_110">
    <path d="M 569.998254 308.637239 
L 599.80239 308.637239 
" clip-path="url(#pf6f85fbd63)" style="fill: none; stroke: #000000"/>
   </g>
   <g id="line2d_111">
    <g clip-path="url(#pf6f85fbd63)">
     <use xlink:href="#mc74c10825c" x="584.900322" y="305.200419" style="fill: #ffffff; stroke: #000000"/>
    </g>
   </g>
   <g id="line2d_112">
    <path d="M 629.606527 303.117419 
L 659.410664 303.117419 
" clip-path="url(#pf6f85fbd63)" style="fill: none; stroke: #000000"/>
   </g>
   <g id="line2d_113">
    <g clip-path="url(#pf6f85fbd63)">
     <use xlink:href="#mc74c10825c" x="644.508595" y="294.919347" style="fill: #ffffff; stroke: #000000"/>
    </g>
   </g>
   <g id="line2d_114">
    <path d="M 748.823073 261.13027 
L 778.62721 261.13027 
" clip-path="url(#pf6f85fbd63)" style="fill: none; stroke: #000000"/>
   </g>
   <g id="line2d_115">
    <g clip-path="url(#pf6f85fbd63)">
     <use xlink:href="#mc74c10825c" x="763.725142" y="243.784755" style="fill: #ffffff; stroke: #000000"/>
    </g>
   </g>
   <g id="line2d_116">
    <path d="M 808.431347 261.102081 
L 838.235483 261.102081 
" clip-path="url(#pf6f85fbd63)" style="fill: none; stroke: #000000"/>
   </g>
   <g id="line2d_117">
    <g clip-path="url(#pf6f85fbd63)">
     <use xlink:href="#mc74c10825c" x="823.333415" y="243.875148" style="fill: #ffffff; stroke: #000000"/>
    </g>
   </g>
   <g id="line2d_118">
    <path d="M 868.03962 260.610146 
L 897.843756 260.610146 
" clip-path="url(#pf6f85fbd63)" style="fill: none; stroke: #000000"/>
   </g>
   <g id="line2d_119">
    <g clip-path="url(#pf6f85fbd63)">
     <use xlink:href="#mc74c10825c" x="882.941688" y="243.83842" style="fill: #ffffff; stroke: #000000"/>
    </g>
   </g>
   <g id="line2d_120">
    <path d="M 927.647893 253.962446 
L 957.45203 253.962446 
" clip-path="url(#pf6f85fbd63)" style="fill: none; stroke: #000000"/>
   </g>
   <g id="line2d_121">
    <g clip-path="url(#pf6f85fbd63)">
     <use xlink:href="#mc74c10825c" x="942.549961" y="234.306742" style="fill: #ffffff; stroke: #000000"/>
    </g>
   </g>
   <g id="line2d_122">
    <path d="M 987.256166 253.626292 
L 1017.060303 253.626292 
" clip-path="url(#pf6f85fbd63)" style="fill: none; stroke: #000000"/>
   </g>
   <g id="line2d_123">
    <g clip-path="url(#pf6f85fbd63)">
     <use xlink:href="#mc74c10825c" x="1002.158235" y="235.375872" style="fill: #ffffff; stroke: #000000"/>
    </g>
   </g>
   <g id="line2d_124">
    <path d="M 1046.864439 249.678398 
L 1076.668576 249.678398 
" clip-path="url(#pf6f85fbd63)" style="fill: none; stroke: #000000"/>
   </g>
   <g id="line2d_125">
    <g clip-path="url(#pf6f85fbd63)">
     <use xlink:href="#mc74c10825c" x="1061.766508" y="230.753405" style="fill: #ffffff; stroke: #000000"/>
    </g>
   </g>
   <g id="line2d_126">
    <path d="M 1106.472713 300.836752 
L 1136.276849 300.836752 
" clip-path="url(#pf6f85fbd63)" style="fill: none; stroke: #000000"/>
   </g>
   <g id="line2d_127">
    <g clip-path="url(#pf6f85fbd63)">
     <use xlink:href="#mc74c10825c" x="1121.374781" y="299.9035" style="fill: #ffffff; stroke: #000000"/>
    </g>
   </g>
   <g id="line2d_128">
    <path d="M 1166.080986 299.071883 
L 1195.885122 299.071883 
" clip-path="url(#pf6f85fbd63)" style="fill: none; stroke: #000000"/>
   </g>
   <g id="line2d_129">
    <g clip-path="url(#pf6f85fbd63)">
     <use xlink:href="#mc74c10825c" x="1180.983054" y="293.379074" style="fill: #ffffff; stroke: #000000"/>
    </g>
   </g>
   <g id="line2d_130">
    <path d="M 1225.689259 276.765604 
L 1255.493396 276.765604 
" clip-path="url(#pf6f85fbd63)" style="fill: none; stroke: #000000"/>
   </g>
   <g id="line2d_131">
    <g clip-path="url(#pf6f85fbd63)">
     <use xlink:href="#mc74c10825c" x="1240.591327" y="276.112548" style="fill: #ffffff; stroke: #000000"/>
    </g>
   </g>
   <g id="patch_21">
    <path d="M 78.23 348.71834 
L 78.23 21.6 
" style="fill: none; stroke: #000000; stroke-width: 0.8; stroke-linejoin: miter; stroke-linecap: square"/>
   </g>
   <g id="patch_22">
    <path d="M 78.23 348.71834 
L 1270.395464 348.71834 
" style="fill: none; stroke: #000000; stroke-width: 0.8; stroke-linejoin: miter; stroke-linecap: square"/>
   </g>
  </g>
 </g>
 <defs>
  <clipPath id="pf6f85fbd63">
   <rect x="78.23" y="21.6" width="1192.165464" height="327.11834"/>
  </clipPath>
 </defs>
</svg>
