<?xml version="1.0" encoding="utf-8" standalone="no"?>
<!DOCTYPE svg PUBLIC "-//W3C//DTD SVG 1.1//EN"
  "http://www.w3.org/Graphics/SVG/1.1/DTD/svg11.dtd">
<svg xmlns:xlink="http://www.w3.org/1999/xlink" width="460.8pt" height="345.6pt" viewBox="0 0 460.8 345.6" xmlns="http://www.w3.org/2000/svg" version="1.1">
 <metadata>
  <rdf:RDF xmlns:dc="http://purl.org/dc/elements/1.1/" xmlns:cc="http://creativecommons.org/ns#" xmlns:rdf="http://www.w3.org/1999/02/22-rdf-syntax-ns#">
   <cc:Work>
    <dc:type rdf:resource="http://purl.org/dc/dcmitype/StillImage"/>
    <dc:date>2026-03-25T16:30:16.821390</dc:date>
    <dc:format>image/svg+xml</dc:format>
    <dc:creator>
     <cc:Agent>
      <dc:title>Matplotlib v3.10.3, https://matplotlib.org/</dc:title>
     </cc:Agent>
    </dc:creator>
   </cc:Work>
  </rdf:RDF>
 </metadata>
 <defs>
  <style type="text/css">*{stroke-linejoin: round; stroke-linecap: butt}</style>
 </defs>
 <g id="figure_1">
  <g id="patch_1">
   <path d="M 0 345.6 
L 460.8 345.6 
L 460.8 0 
L 0 0 
z
" style="fill: #ffffff"/>
  </g>
  <g id="axes_1">
   <g id="patch_2">
    <path d="M 84.71 257.942442 
L 439.2 257.942442 
L 439.2 21.6 
L 84.71 21.6 
z
" style="fill: #ffffff"/>
   </g>
   <g id="FillBetweenPolyCollection_1">
    <defs>
     <path id="m35a8b6b969" d="M 125.417871 -118.628443 
L 118.26288 -118.628443 
L 118.159052 -120.59439 
L 118.061813 -122.560337 
L 117.9717 -124.526283 
L 117.889198 -126.49223 
L 117.814735 -128.458176 
L 117.748677 -130.424123 
L 117.691326 -132.39007 
L 117.642916 -134.356016 
L 117.603618 -136.321963 
L 117.573532 -138.28791 
L 117.552692 -140.253856 
L 117.541067 -142.219803 
L 117.538562 -144.18575 
L 117.54502 -146.151696 
L 117.560224 -148.117643 
L 117.583902 -150.08359 
L 117.615727 -152.049536 
L 117.655324 -154.015483 
L 117.70227 -155.98143 
L 117.756096 -157.947376 
L 117.816295 -159.913323 
L 117.882318 -161.87927 
L 117.953581 -163.845216 
L 118.029469 -165.811163 
L 118.10933 -167.77711 
L 118.192486 -169.743056 
L 118.27823 -171.709003 
L 118.365827 -173.674949 
L 118.454518 -175.640896 
L 118.543522 -177.606843 
L 118.632033 -179.572789 
L 118.719228 -181.538736 
L 118.804264 -183.504683 
L 118.886281 -185.470629 
L 118.964404 -187.436576 
L 119.037748 -189.402523 
L 119.105413 -191.368469 
L 119.166495 -193.334416 
L 119.220081 -195.300363 
L 119.265254 -197.266309 
L 119.301098 -199.232256 
L 119.326695 -201.198203 
L 119.341131 -203.164149 
L 119.343497 -205.130096 
L 119.332889 -207.096043 
L 119.308412 -209.061989 
L 119.269182 -211.027936 
L 119.214325 -212.993882 
L 119.142982 -214.959829 
L 119.054307 -216.925776 
L 118.947471 -218.891722 
L 118.821667 -220.857669 
L 118.676107 -222.823616 
L 118.51003 -224.789562 
L 118.322708 -226.755509 
L 118.113444 -228.721456 
L 117.881589 -230.687402 
L 117.626542 -232.653349 
L 117.347765 -234.619296 
L 117.044791 -236.585242 
L 116.717241 -238.551189 
L 116.364833 -240.517136 
L 115.987405 -242.483082 
L 115.584928 -244.449029 
L 115.157528 -246.414976 
L 114.705502 -248.380922 
L 114.229342 -250.346869 
L 113.729754 -252.312816 
L 113.207679 -254.278762 
L 112.664308 -256.244709 
L 112.101103 -258.210655 
L 111.519809 -260.176602 
L 110.922466 -262.142549 
L 110.311418 -264.108495 
L 109.689312 -266.074442 
L 109.059099 -268.040389 
L 108.424026 -270.006335 
L 107.78762 -271.972282 
L 107.153672 -273.938229 
L 106.526204 -275.904175 
L 105.909444 -277.870122 
L 105.307778 -279.836069 
L 104.725711 -281.802015 
L 104.167816 -283.767962 
L 103.638675 -285.733909 
L 103.142822 -287.699855 
L 102.684685 -289.665802 
L 102.268515 -291.631749 
L 101.898332 -293.597695 
L 101.577854 -295.563642 
L 101.310442 -297.529589 
L 101.099046 -299.495535 
L 100.946146 -301.461482 
L 100.853716 -303.427428 
L 100.823182 -305.393375 
L 100.855394 -307.359322 
L 100.950606 -309.325268 
L 101.108468 -311.291215 
L 101.328025 -313.257162 
L 142.352726 -313.257162 
L 142.352726 -313.257162 
L 142.572282 -311.291215 
L 142.730145 -309.325268 
L 142.825357 -307.359322 
L 142.857569 -305.393375 
L 142.827035 -303.427428 
L 142.734605 -301.461482 
L 142.581705 -299.495535 
L 142.370309 -297.529589 
L 142.102897 -295.563642 
L 141.782419 -293.597695 
L 141.412236 -291.631749 
L 140.996066 -289.665802 
L 140.537929 -287.699855 
L 140.042076 -285.733909 
L 139.512935 -283.767962 
L 138.95504 -281.802015 
L 138.372973 -279.836069 
L 137.771307 -277.870122 
L 137.154547 -275.904175 
L 136.527079 -273.938229 
L 135.893131 -271.972282 
L 135.256725 -270.006335 
L 134.621652 -268.040389 
L 133.991439 -266.074442 
L 133.369333 -264.108495 
L 132.758285 -262.142549 
L 132.160942 -260.176602 
L 131.579648 -258.210655 
L 131.016443 -256.244709 
L 130.473072 -254.278762 
L 129.950997 -252.312816 
L 129.451409 -250.346869 
L 128.975249 -248.380922 
L 128.523223 -246.414976 
L 128.095823 -244.449029 
L 127.693346 -242.483082 
L 127.315918 -240.517136 
L 126.96351 -238.551189 
L 126.63596 -236.585242 
L 126.332986 -234.619296 
L 126.054209 -232.653349 
L 125.799162 -230.687402 
L 125.567307 -228.721456 
L 125.358043 -226.755509 
L 125.170721 -224.789562 
L 125.004644 -222.823616 
L 124.859084 -220.857669 
L 124.73328 -218.891722 
L 124.626444 -216.925776 
L 124.537769 -214.959829 
L 124.466426 -212.993882 
L 124.411569 -211.027936 
L 124.372339 -209.061989 
L 124.347862 -207.096043 
L 124.337254 -205.130096 
L 124.33962 -203.164149 
L 124.354056 -201.198203 
L 124.379653 -199.232256 
L 124.415497 -197.266309 
L 124.46067 -195.300363 
L 124.514256 -193.334416 
L 124.575338 -191.368469 
L 124.643003 -189.402523 
L 124.716347 -187.436576 
L 124.79447 -185.470629 
L 124.876487 -183.504683 
L 124.961523 -181.538736 
L 125.048718 -179.572789 
L 125.137229 -177.606843 
L 125.226233 -175.640896 
L 125.314924 -173.674949 
L 125.402521 -171.709003 
L 125.488265 -169.743056 
L 125.571421 -167.77711 
L 125.651282 -165.811163 
L 125.72717 -163.845216 
L 125.798433 -161.87927 
L 125.864456 -159.913323 
L 125.924655 -157.947376 
L 125.978481 -155.98143 
L 126.025427 -154.015483 
L 126.065024 -152.049536 
L 126.096849 -150.08359 
L 126.120527 -148.117643 
L 126.135731 -146.151696 
L 126.142189 -144.18575 
L 126.139684 -142.219803 
L 126.128059 -140.253856 
L 126.107219 -138.28791 
L 126.077133 -136.321963 
L 126.037835 -134.356016 
L 125.989425 -132.39007 
L 125.932074 -130.424123 
L 125.866016 -128.458176 
L 125.791553 -126.49223 
L 125.709051 -124.526283 
L 125.618938 -122.560337 
L 125.521699 -120.59439 
L 125.417871 -118.628443 
z
" style="stroke: #000000; stroke-opacity: 0.7"/>
    </defs>
    <g clip-path="url(#pc4cfba385b)">
     <use xlink:href="#m35a8b6b969" x="0" y="345.6" style="fill: #ff0000; fill-opacity: 0.7; stroke: #000000; stroke-opacity: 0.7"/>
    </g>
   </g>
   <g id="FillBetweenPolyCollection_2">
    <defs>
     <path id="mbd0a3a34ca" d="M 195.487502 -119.36256 
L 188.307873 -119.36256 
L 188.200736 -121.321079 
L 188.099808 -123.279598 
L 188.005634 -125.238118 
L 187.918713 -127.196637 
L 187.839494 -129.155157 
L 187.768368 -131.113676 
L 187.705672 -133.072195 
L 187.651679 -135.030715 
L 187.606603 -136.989234 
L 187.570592 -138.947753 
L 187.543734 -140.906273 
L 187.52605 -142.864792 
L 187.517501 -144.823311 
L 187.517985 -146.781831 
L 187.527339 -148.74035 
L 187.54534 -150.698869 
L 187.571712 -152.657389 
L 187.606118 -154.615908 
L 187.648172 -156.574428 
L 187.697434 -158.532947 
L 187.753418 -160.491466 
L 187.815588 -162.449986 
L 187.883367 -164.408505 
L 187.956133 -166.367024 
L 188.033227 -168.325544 
L 188.113954 -170.284063 
L 188.197582 -172.242582 
L 188.283351 -174.201102 
L 188.370472 -176.159621 
L 188.458131 -178.11814 
L 188.545493 -180.07666 
L 188.631706 -182.035179 
L 188.715903 -183.993699 
L 188.797205 -185.952218 
L 188.874727 -187.910737 
L 188.947579 -189.869257 
L 189.014872 -191.827776 
L 189.075718 -193.786295 
L 189.129232 -195.744815 
L 189.17454 -197.703334 
L 189.210772 -199.661853 
L 189.237072 -201.620373 
L 189.252592 -203.578892 
L 189.256495 -205.537411 
L 189.247957 -207.495931 
L 189.22616 -209.45445 
L 189.190299 -211.41297 
L 189.139574 -213.371489 
L 189.073191 -215.330008 
L 188.990363 -217.288528 
L 188.890308 -219.247047 
L 188.772245 -221.205566 
L 188.635403 -223.164086 
L 188.479015 -225.122605 
L 188.302324 -227.081124 
L 188.10459 -229.039644 
L 187.885094 -230.998163 
L 187.643147 -232.956682 
L 187.378103 -234.915202 
L 187.089368 -236.873721 
L 186.776419 -238.832241 
L 186.438819 -240.79076 
L 186.076239 -242.749279 
L 185.688476 -244.707799 
L 185.275476 -246.666318 
L 184.837361 -248.624837 
L 184.374449 -250.583357 
L 183.887281 -252.541876 
L 183.37664 -254.500395 
L 182.843579 -256.458915 
L 182.289436 -258.417434 
L 181.715853 -260.375953 
L 181.124788 -262.334473 
L 180.518525 -264.292992 
L 179.899675 -266.251512 
L 179.271178 -268.210031 
L 178.636292 -270.16855 
L 177.998579 -272.12707 
L 177.361881 -274.085589 
L 176.730298 -276.044108 
L 176.108145 -278.002628 
L 175.499915 -279.961147 
L 174.91023 -281.919666 
L 174.343785 -283.878186 
L 173.805295 -285.836705 
L 173.299429 -287.795224 
L 172.830748 -289.753744 
L 172.403638 -291.712263 
L 172.022245 -293.670783 
L 171.690411 -295.629302 
L 171.411615 -297.587821 
L 171.188909 -299.546341 
L 171.024873 -301.50486 
L 170.921567 -303.463379 
L 170.880494 -305.421899 
L 170.90257 -307.380418 
L 170.988105 -309.338937 
L 171.136796 -311.297457 
L 171.347723 -313.255976 
L 212.447652 -313.255976 
L 212.447652 -313.255976 
L 212.65858 -311.297457 
L 212.807271 -309.338937 
L 212.892806 -307.380418 
L 212.914881 -305.421899 
L 212.873808 -303.463379 
L 212.770502 -301.50486 
L 212.606467 -299.546341 
L 212.383761 -297.587821 
L 212.104964 -295.629302 
L 211.773131 -293.670783 
L 211.391738 -291.712263 
L 210.964628 -289.753744 
L 210.495946 -287.795224 
L 209.990081 -285.836705 
L 209.451591 -283.878186 
L 208.885146 -281.919666 
L 208.29546 -279.961147 
L 207.68723 -278.002628 
L 207.065077 -276.044108 
L 206.433494 -274.085589 
L 205.796797 -272.12707 
L 205.159083 -270.16855 
L 204.524197 -268.210031 
L 203.8957 -266.251512 
L 203.276851 -264.292992 
L 202.670587 -262.334473 
L 202.079522 -260.375953 
L 201.505939 -258.417434 
L 200.951797 -256.458915 
L 200.418736 -254.500395 
L 199.908095 -252.541876 
L 199.420926 -250.583357 
L 198.958014 -248.624837 
L 198.519899 -246.666318 
L 198.1069 -244.707799 
L 197.719136 -242.749279 
L 197.356556 -240.79076 
L 197.018957 -238.832241 
L 196.706008 -236.873721 
L 196.417273 -234.915202 
L 196.152228 -232.956682 
L 195.910282 -230.998163 
L 195.690786 -229.039644 
L 195.493052 -227.081124 
L 195.316361 -225.122605 
L 195.159972 -223.164086 
L 195.02313 -221.205566 
L 194.905068 -219.247047 
L 194.805012 -217.288528 
L 194.722185 -215.330008 
L 194.655802 -213.371489 
L 194.605076 -211.41297 
L 194.569215 -209.45445 
L 194.547419 -207.495931 
L 194.53888 -205.537411 
L 194.542784 -203.578892 
L 194.558303 -201.620373 
L 194.584603 -199.661853 
L 194.620836 -197.703334 
L 194.666143 -195.744815 
L 194.719658 -193.786295 
L 194.780503 -191.827776 
L 194.847796 -189.869257 
L 194.920649 -187.910737 
L 194.998171 -185.952218 
L 195.079473 -183.993699 
L 195.163669 -182.035179 
L 195.249882 -180.07666 
L 195.337245 -178.11814 
L 195.424904 -176.159621 
L 195.512024 -174.201102 
L 195.597793 -172.242582 
L 195.681422 -170.284063 
L 195.762148 -168.325544 
L 195.839243 -166.367024 
L 195.912009 -164.408505 
L 195.979788 -162.449986 
L 196.041958 -160.491466 
L 196.097941 -158.532947 
L 196.147204 -156.574428 
L 196.189258 -154.615908 
L 196.223664 -152.657389 
L 196.250035 -150.698869 
L 196.268037 -148.74035 
L 196.27739 -146.781831 
L 196.277874 -144.823311 
L 196.269325 -142.864792 
L 196.251641 -140.906273 
L 196.224783 -138.947753 
L 196.188773 -136.989234 
L 196.143696 -135.030715 
L 196.089704 -133.072195 
L 196.027007 -131.113676 
L 195.955882 -129.155157 
L 195.876662 -127.196637 
L 195.789742 -125.238118 
L 195.695568 -123.279598 
L 195.594639 -121.321079 
L 195.487502 -119.36256 
z
" style="stroke: #000000; stroke-opacity: 0.7"/>
    </defs>
    <g clip-path="url(#pc4cfba385b)">
     <use xlink:href="#mbd0a3a34ca" x="0" y="345.6" style="fill: #ff0000; fill-opacity: 0.7; stroke: #000000; stroke-opacity: 0.7"/>
    </g>
   </g>
   <g id="FillBetweenPolyCollection_3">
    <defs>
     <path id="m83ea32b895" d="M 350.432732 -98.467565 
L 313.591892 -98.467565 
L 313.003127 -100.400741 
L 312.483245 -102.333916 
L 312.037 -104.267092 
L 311.668022 -106.200267 
L 311.378746 -108.133443 
L 311.170383 -110.066619 
L 311.042914 -111.999794 
L 310.995119 -113.93297 
L 311.024636 -115.866145 
L 311.128047 -117.799321 
L 311.300987 -119.732496 
L 311.538269 -121.665672 
L 311.834029 -123.598847 
L 312.181877 -125.532023 
L 312.575058 -127.465198 
L 313.006604 -129.398374 
L 313.469495 -131.331549 
L 313.956797 -133.264725 
L 314.461803 -135.1979 
L 314.978151 -137.131076 
L 315.499927 -139.064251 
L 316.021752 -140.997427 
L 316.538851 -142.930602 
L 317.047097 -144.863778 
L 317.543043 -146.796953 
L 318.023932 -148.730129 
L 318.487686 -150.663304 
L 318.932888 -152.59648 
L 319.358739 -154.529655 
L 319.765008 -156.462831 
L 320.151971 -158.396006 
L 320.520339 -160.329182 
L 320.871185 -162.262357 
L 321.205856 -164.195533 
L 321.525901 -166.128708 
L 321.832983 -168.061884 
L 322.128806 -169.995059 
L 322.415041 -171.928235 
L 322.693265 -173.861411 
L 322.964906 -175.794586 
L 323.231198 -177.727762 
L 323.493154 -179.660937 
L 323.751541 -181.594113 
L 324.006875 -183.527288 
L 324.25943 -185.460464 
L 324.509247 -187.393639 
L 324.756166 -189.326815 
L 324.999857 -191.25999 
L 325.239856 -193.193166 
L 325.475617 -195.126341 
L 325.706549 -197.059517 
L 325.932061 -198.992692 
L 326.151607 -200.925868 
L 326.364717 -202.859043 
L 326.571029 -204.792219 
L 326.770309 -206.725394 
L 326.962463 -208.65857 
L 327.147542 -210.591745 
L 327.325735 -212.524921 
L 327.497355 -214.458096 
L 327.662821 -216.391272 
L 327.822631 -218.324447 
L 327.977327 -220.257623 
L 328.127468 -222.190798 
L 328.273594 -224.123974 
L 328.416193 -226.057149 
L 328.555676 -227.990325 
L 328.69235 -229.9235 
L 328.8264 -231.856676 
L 328.957879 -233.789851 
L 329.086703 -235.723027 
L 329.212654 -237.656203 
L 329.33539 -239.589378 
L 329.454465 -241.522554 
L 329.569347 -243.455729 
L 329.679447 -245.388905 
L 329.784152 -247.32208 
L 329.882851 -249.255256 
L 329.974974 -251.188431 
L 330.060019 -253.121607 
L 330.137581 -255.054782 
L 330.207377 -256.987958 
L 330.269268 -258.921133 
L 330.323269 -260.854309 
L 330.369561 -262.787484 
L 330.408489 -264.72066 
L 330.44056 -266.653835 
L 330.466428 -268.587011 
L 330.486883 -270.520186 
L 330.502822 -272.453362 
L 330.515227 -274.386537 
L 330.525137 -276.319713 
L 330.533613 -278.252888 
L 330.541712 -280.186064 
L 330.550452 -282.119239 
L 330.560784 -284.052415 
L 330.573569 -285.98559 
L 330.589549 -287.918766 
L 330.609337 -289.851941 
L 333.415287 -289.851941 
L 333.415287 -289.851941 
L 333.435076 -287.918766 
L 333.451056 -285.98559 
L 333.46384 -284.052415 
L 333.474172 -282.119239 
L 333.482912 -280.186064 
L 333.491011 -278.252888 
L 333.499488 -276.319713 
L 333.509397 -274.386537 
L 333.521803 -272.453362 
L 333.537742 -270.520186 
L 333.558196 -268.587011 
L 333.584065 -266.653835 
L 333.616135 -264.72066 
L 333.655063 -262.787484 
L 333.701355 -260.854309 
L 333.755356 -258.921133 
L 333.817247 -256.987958 
L 333.887044 -255.054782 
L 333.964606 -253.121607 
L 334.04965 -251.188431 
L 334.141774 -249.255256 
L 334.240473 -247.32208 
L 334.345177 -245.388905 
L 334.455278 -243.455729 
L 334.570159 -241.522554 
L 334.689234 -239.589378 
L 334.811971 -237.656203 
L 334.937922 -235.723027 
L 335.066745 -233.789851 
L 335.198224 -231.856676 
L 335.332274 -229.9235 
L 335.468948 -227.990325 
L 335.608432 -226.057149 
L 335.751031 -224.123974 
L 335.897157 -222.190798 
L 336.047298 -220.257623 
L 336.201994 -218.324447 
L 336.361803 -216.391272 
L 336.52727 -214.458096 
L 336.69889 -212.524921 
L 336.877082 -210.591745 
L 337.062161 -208.65857 
L 337.254315 -206.725394 
L 337.453595 -204.792219 
L 337.659908 -202.859043 
L 337.873018 -200.925868 
L 338.092564 -198.992692 
L 338.318076 -197.059517 
L 338.549007 -195.126341 
L 338.784768 -193.193166 
L 339.024768 -191.25999 
L 339.268458 -189.326815 
L 339.515378 -187.393639 
L 339.765195 -185.460464 
L 340.017749 -183.527288 
L 340.273084 -181.594113 
L 340.53147 -179.660937 
L 340.793426 -177.727762 
L 341.059719 -175.794586 
L 341.33136 -173.861411 
L 341.609584 -171.928235 
L 341.895819 -169.995059 
L 342.191641 -168.061884 
L 342.498723 -166.128708 
L 342.818768 -164.195533 
L 343.15344 -162.262357 
L 343.504285 -160.329182 
L 343.872654 -158.396006 
L 344.259617 -156.462831 
L 344.665886 -154.529655 
L 345.091736 -152.59648 
L 345.536938 -150.663304 
L 346.000693 -148.730129 
L 346.481581 -146.796953 
L 346.977528 -144.863778 
L 347.485774 -142.930602 
L 348.002872 -140.997427 
L 348.524698 -139.064251 
L 349.046474 -137.131076 
L 349.562822 -135.1979 
L 350.067828 -133.264725 
L 350.55513 -131.331549 
L 351.01802 -129.398374 
L 351.449567 -127.465198 
L 351.842748 -125.532023 
L 352.190596 -123.598847 
L 352.486356 -121.665672 
L 352.723637 -119.732496 
L 352.896577 -117.799321 
L 352.999989 -115.866145 
L 353.029506 -113.93297 
L 352.981711 -111.999794 
L 352.854241 -110.066619 
L 352.645878 -108.133443 
L 352.356603 -106.200267 
L 351.987624 -104.267092 
L 351.54138 -102.333916 
L 351.021497 -100.400741 
L 350.432732 -98.467565 
z
" style="stroke: #000000; stroke-opacity: 0.7"/>
    </defs>
    <g clip-path="url(#pc4cfba385b)">
     <use xlink:href="#m83ea32b895" x="0" y="345.6" style="fill: #ff0000; fill-opacity: 0.7; stroke: #000000; stroke-opacity: 0.7"/>
    </g>
   </g>
   <g id="FillBetweenPolyCollection_4">
    <defs>
     <path id="mbc0f8dc9b2" d="M 421.50295 -98.400397 
L 382.636299 -98.400397 
L 382.264827 -99.601486 
L 381.940522 -100.802575 
L 381.665159 -102.003664 
L 381.440062 -103.204753 
L 381.26609 -104.405843 
L 381.143629 -105.606932 
L 381.072594 -106.808021 
L 381.052431 -108.00911 
L 381.082137 -109.2102 
L 381.16028 -110.411289 
L 381.285022 -111.612378 
L 381.45416 -112.813467 
L 381.665155 -114.014556 
L 381.91518 -115.215646 
L 382.201164 -116.416735 
L 382.519835 -117.617824 
L 382.867774 -118.818913 
L 383.241459 -120.020002 
L 383.637314 -121.221092 
L 384.051757 -122.422181 
L 384.481241 -123.62327 
L 384.9223 -124.824359 
L 385.371579 -126.025448 
L 385.825875 -127.226538 
L 386.282162 -128.427627 
L 386.737616 -129.628716 
L 387.189637 -130.829805 
L 387.635858 -132.030895 
L 388.074163 -133.231984 
L 388.502687 -134.433073 
L 388.919818 -135.634162 
L 389.324196 -136.835251 
L 389.714705 -138.036341 
L 390.090464 -139.23743 
L 390.450815 -140.438519 
L 390.795307 -141.639608 
L 391.123683 -142.840697 
L 391.435858 -144.041787 
L 391.731903 -145.242876 
L 392.012025 -146.443965 
L 392.276549 -147.645054 
L 392.525898 -148.846143 
L 392.760574 -150.047233 
L 392.981143 -151.248322 
L 393.188217 -152.449411 
L 393.382438 -153.6505 
L 393.564468 -154.85159 
L 393.73497 -156.052679 
L 393.894605 -157.253768 
L 394.044015 -158.454857 
L 394.183824 -159.655946 
L 394.314623 -160.857036 
L 394.436969 -162.058125 
L 394.551386 -163.259214 
L 394.658354 -164.460303 
L 394.758317 -165.661392 
L 394.851676 -166.862482 
L 394.938797 -168.063571 
L 395.020007 -169.26466 
L 395.095605 -170.465749 
L 395.165857 -171.666838 
L 395.231009 -172.867928 
L 395.291287 -174.069017 
L 395.346902 -175.270106 
L 395.39806 -176.471195 
L 395.444967 -177.672284 
L 395.48783 -178.873374 
L 395.526869 -180.074463 
L 395.56232 -181.275552 
L 395.594441 -182.476641 
L 395.623513 -183.677731 
L 395.649852 -184.87882 
L 395.673803 -186.079909 
L 395.69575 -187.280998 
L 395.716114 -188.482087 
L 395.735352 -189.683177 
L 395.75396 -190.884266 
L 395.772469 -192.085355 
L 395.791441 -193.286444 
L 395.811467 -194.487533 
L 395.833161 -195.688623 
L 395.857153 -196.889712 
L 395.884082 -198.090801 
L 395.914587 -199.29189 
L 395.9493 -200.492979 
L 395.988835 -201.694069 
L 396.03378 -202.895158 
L 396.084685 -204.096247 
L 396.142056 -205.297336 
L 396.20634 -206.498426 
L 396.277923 -207.699515 
L 396.357118 -208.900604 
L 396.444157 -210.101693 
L 396.539191 -211.302782 
L 396.642279 -212.503872 
L 396.75339 -213.704961 
L 396.872397 -214.90605 
L 396.999084 -216.107139 
L 397.13314 -217.308228 
L 407.006109 -217.308228 
L 407.006109 -217.308228 
L 407.140165 -216.107139 
L 407.266852 -214.90605 
L 407.385859 -213.704961 
L 407.49697 -212.503872 
L 407.600058 -211.302782 
L 407.695092 -210.101693 
L 407.782131 -208.900604 
L 407.861326 -207.699515 
L 407.932909 -206.498426 
L 407.997193 -205.297336 
L 408.054564 -204.096247 
L 408.105469 -202.895158 
L 408.150414 -201.694069 
L 408.189949 -200.492979 
L 408.224662 -199.29189 
L 408.255167 -198.090801 
L 408.282096 -196.889712 
L 408.306088 -195.688623 
L 408.327782 -194.487533 
L 408.347808 -193.286444 
L 408.36678 -192.085355 
L 408.385289 -190.884266 
L 408.403897 -189.683177 
L 408.423135 -188.482087 
L 408.443499 -187.280998 
L 408.465446 -186.079909 
L 408.489397 -184.87882 
L 408.515736 -183.677731 
L 408.544808 -182.476641 
L 408.576929 -181.275552 
L 408.61238 -180.074463 
L 408.651419 -178.873374 
L 408.694282 -177.672284 
L 408.741189 -176.471195 
L 408.792347 -175.270106 
L 408.847962 -174.069017 
L 408.90824 -172.867928 
L 408.973392 -171.666838 
L 409.043644 -170.465749 
L 409.119242 -169.26466 
L 409.200452 -168.063571 
L 409.287573 -166.862482 
L 409.380932 -165.661392 
L 409.480895 -164.460303 
L 409.587863 -163.259214 
L 409.70228 -162.058125 
L 409.824626 -160.857036 
L 409.955425 -159.655946 
L 410.095234 -158.454857 
L 410.244644 -157.253768 
L 410.404279 -156.052679 
L 410.574781 -154.85159 
L 410.756811 -153.6505 
L 410.951032 -152.449411 
L 411.158106 -151.248322 
L 411.378675 -150.047233 
L 411.613351 -148.846143 
L 411.8627 -147.645054 
L 412.127224 -146.443965 
L 412.407346 -145.242876 
L 412.703391 -144.041787 
L 413.015566 -142.840697 
L 413.343942 -141.639608 
L 413.688434 -140.438519 
L 414.048785 -139.23743 
L 414.424544 -138.036341 
L 414.815053 -136.835251 
L 415.219431 -135.634162 
L 415.636562 -134.433073 
L 416.065086 -133.231984 
L 416.503391 -132.030895 
L 416.949612 -130.829805 
L 417.401633 -129.628716 
L 417.857087 -128.427627 
L 418.313374 -127.226538 
L 418.76767 -126.025448 
L 419.216949 -124.824359 
L 419.658008 -123.62327 
L 420.087492 -122.422181 
L 420.501935 -121.221092 
L 420.89779 -120.020002 
L 421.271475 -118.818913 
L 421.619414 -117.617824 
L 421.938085 -116.416735 
L 422.224069 -115.215646 
L 422.474094 -114.014556 
L 422.685089 -112.813467 
L 422.854227 -111.612378 
L 422.978969 -110.411289 
L 423.057112 -109.2102 
L 423.086818 -108.00911 
L 423.066655 -106.808021 
L 422.99562 -105.606932 
L 422.873159 -104.405843 
L 422.699187 -103.204753 
L 422.47409 -102.003664 
L 422.198727 -100.802575 
L 421.874422 -99.601486 
L 421.50295 -98.400397 
z
" style="stroke: #000000; stroke-opacity: 0.7"/>
    </defs>
    <g clip-path="url(#pc4cfba385b)">
     <use xlink:href="#mbc0f8dc9b2" x="0" y="345.6" style="fill: #ff0000; fill-opacity: 0.7; stroke: #000000; stroke-opacity: 0.7"/>
    </g>
   </g>
   <g id="matplotlib.axis_1">
    <g id="xtick_1">
     <g id="line2d_1">
      <defs>
       <path id="mca980d01dc" d="M 0 0 
L 0 3.5 
" style="stroke: #000000; stroke-width: 0.8"/>
      </defs>
      <g>
       <use xlink:href="#mca980d01dc" x="121.840375" y="257.942442" style="stroke: #000000; stroke-width: 0.8"/>
      </g>
     </g>
     <g id="text_1">
      <!-- LPPD1 -->
      <g transform="translate(74.077522 320.509986) rotate(-45) scale(0.2 -0.2)">
       <defs>
        <path id="DejaVuSans-4c" d="M 628 4666 
L 1259 4666 
L 1259 531 
L 3531 531 
L 3531 0 
L 628 0 
L 628 4666 
z
" transform="scale(0.015625)"/>
        <path id="DejaVuSans-50" d="M 1259 4147 
L 1259 2394 
L 2053 2394 
Q 2494 2394 2734 2622 
Q 2975 2850 2975 3272 
Q 2975 3691 2734 3919 
Q 2494 4147 2053 4147 
L 1259 4147 
z
M 628 4666 
L 2053 4666 
Q 2838 4666 3239 4311 
Q 3641 3956 3641 3272 
Q 3641 2581 3239 2228 
Q 2838 1875 2053 1875 
L 1259 1875 
L 1259 0 
L 628 0 
L 628 4666 
z
" transform="scale(0.015625)"/>
        <path id="DejaVuSans-44" d="M 1259 4147 
L 1259 519 
L 2022 519 
Q 2988 519 3436 956 
Q 3884 1394 3884 2338 
Q 3884 3275 3436 3711 
Q 2988 4147 2022 4147 
L 1259 4147 
z
M 628 4666 
L 1925 4666 
Q 3281 4666 3915 4102 
Q 4550 3538 4550 2338 
Q 4550 1131 3912 565 
Q 3275 0 1925 0 
L 628 0 
L 628 4666 
z
" transform="scale(0.015625)"/>
        <path id="DejaVuSans-31" d="M 794 531 
L 1825 531 
L 1825 4091 
L 703 3866 
L 703 4441 
L 1819 4666 
L 2450 4666 
L 2450 531 
L 3481 531 
L 3481 0 
L 794 0 
L 794 531 
z
" transform="scale(0.015625)"/>
       </defs>
       <use xlink:href="#DejaVuSans-4c"/>
       <use xlink:href="#DejaVuSans-50" transform="translate(55.712891 0)"/>
       <use xlink:href="#DejaVuSans-50" transform="translate(116.015625 0)"/>
       <use xlink:href="#DejaVuSans-44" transform="translate(176.318359 0)"/>
       <use xlink:href="#DejaVuSans-31" transform="translate(253.320312 0)"/>
      </g>
     </g>
    </g>
    <g id="xtick_2">
     <g id="line2d_2">
      <g>
       <use xlink:href="#mca980d01dc" x="191.897688" y="257.942442" style="stroke: #000000; stroke-width: 0.8"/>
      </g>
     </g>
     <g id="text_2">
      <!-- LPPD2 -->
      <g transform="translate(144.134834 320.509986) rotate(-45) scale(0.2 -0.2)">
       <defs>
        <path id="DejaVuSans-32" d="M 1228 531 
L 3431 531 
L 3431 0 
L 469 0 
L 469 531 
Q 828 903 1448 1529 
Q 2069 2156 2228 2338 
Q 2531 2678 2651 2914 
Q 2772 3150 2772 3378 
Q 2772 3750 2511 3984 
Q 2250 4219 1831 4219 
Q 1534 4219 1204 4116 
Q 875 4013 500 3803 
L 500 4441 
Q 881 4594 1212 4672 
Q 1544 4750 1819 4750 
Q 2544 4750 2975 4387 
Q 3406 4025 3406 3419 
Q 3406 3131 3298 2873 
Q 3191 2616 2906 2266 
Q 2828 2175 2409 1742 
Q 1991 1309 1228 531 
z
" transform="scale(0.015625)"/>
       </defs>
       <use xlink:href="#DejaVuSans-4c"/>
       <use xlink:href="#DejaVuSans-50" transform="translate(55.712891 0)"/>
       <use xlink:href="#DejaVuSans-50" transform="translate(116.015625 0)"/>
       <use xlink:href="#DejaVuSans-44" transform="translate(176.318359 0)"/>
       <use xlink:href="#DejaVuSans-32" transform="translate(253.320312 0)"/>
      </g>
     </g>
    </g>
    <g id="xtick_3">
     <g id="line2d_3">
      <g>
       <use xlink:href="#mca980d01dc" x="332.012312" y="257.942442" style="stroke: #000000; stroke-width: 0.8"/>
      </g>
     </g>
     <g id="text_3">
      <!-- PD1LP -->
      <g transform="translate(284.249459 320.509986) rotate(-45) scale(0.2 -0.2)">
       <use xlink:href="#DejaVuSans-50"/>
       <use xlink:href="#DejaVuSans-44" transform="translate(60.302734 0)"/>
       <use xlink:href="#DejaVuSans-31" transform="translate(137.304688 0)"/>
       <use xlink:href="#DejaVuSans-4c" transform="translate(200.927734 0)"/>
       <use xlink:href="#DejaVuSans-50" transform="translate(256.640625 0)"/>
      </g>
     </g>
    </g>
    <g id="xtick_4">
     <g id="line2d_4">
      <g>
       <use xlink:href="#mca980d01dc" x="402.069625" y="257.942442" style="stroke: #000000; stroke-width: 0.8"/>
      </g>
     </g>
     <g id="text_4">
      <!-- PD2LP -->
      <g transform="translate(354.306771 320.509986) rotate(-45) scale(0.2 -0.2)">
       <use xlink:href="#DejaVuSans-50"/>
       <use xlink:href="#DejaVuSans-44" transform="translate(60.302734 0)"/>
       <use xlink:href="#DejaVuSans-32" transform="translate(137.304688 0)"/>
       <use xlink:href="#DejaVuSans-4c" transform="translate(200.927734 0)"/>
       <use xlink:href="#DejaVuSans-50" transform="translate(256.640625 0)"/>
      </g>
     </g>
    </g>
   </g>
   <g id="matplotlib.axis_2">
    <g id="ytick_1">
     <g id="line2d_5">
      <defs>
       <path id="mb1186d7539" d="M 0 0 
L -3.5 0 
" style="stroke: #000000; stroke-width: 0.8"/>
      </defs>
      <g>
       <use xlink:href="#mb1186d7539" x="84.71" y="247.208204" style="stroke: #000000; stroke-width: 0.8"/>
      </g>
     </g>
     <g id="text_5">
      <!-- 0.00 -->
      <g transform="translate(33.17875 254.806642) scale(0.2 -0.2)">
       <defs>
        <path id="DejaVuSans-30" d="M 2034 4250 
Q 1547 4250 1301 3770 
Q 1056 3291 1056 2328 
Q 1056 1369 1301 889 
Q 1547 409 2034 409 
Q 2525 409 2770 889 
Q 3016 1369 3016 2328 
Q 3016 3291 2770 3770 
Q 2525 4250 2034 4250 
z
M 2034 4750 
Q 2819 4750 3233 4129 
Q 3647 3509 3647 2328 
Q 3647 1150 3233 529 
Q 2819 -91 2034 -91 
Q 1250 -91 836 529 
Q 422 1150 422 2328 
Q 422 3509 836 4129 
Q 1250 4750 2034 4750 
z
" transform="scale(0.015625)"/>
        <path id="DejaVuSans-2e" d="M 684 794 
L 1344 794 
L 1344 0 
L 684 0 
L 684 794 
z
" transform="scale(0.015625)"/>
       </defs>
       <use xlink:href="#DejaVuSans-30"/>
       <use xlink:href="#DejaVuSans-2e" transform="translate(63.623047 0)"/>
       <use xlink:href="#DejaVuSans-30" transform="translate(95.410156 0)"/>
       <use xlink:href="#DejaVuSans-30" transform="translate(159.033203 0)"/>
      </g>
     </g>
    </g>
    <g id="ytick_2">
     <g id="line2d_6">
      <g>
       <use xlink:href="#mb1186d7539" x="84.71" y="193.485629" style="stroke: #000000; stroke-width: 0.8"/>
      </g>
     </g>
     <g id="text_6">
      <!-- 0.25 -->
      <g transform="translate(33.17875 201.084067) scale(0.2 -0.2)">
       <defs>
        <path id="DejaVuSans-35" d="M 691 4666 
L 3169 4666 
L 3169 4134 
L 1269 4134 
L 1269 2991 
Q 1406 3038 1543 3061 
Q 1681 3084 1819 3084 
Q 2600 3084 3056 2656 
Q 3513 2228 3513 1497 
Q 3513 744 3044 326 
Q 2575 -91 1722 -91 
Q 1428 -91 1123 -41 
Q 819 9 494 109 
L 494 744 
Q 775 591 1075 516 
Q 1375 441 1709 441 
Q 2250 441 2565 725 
Q 2881 1009 2881 1497 
Q 2881 1984 2565 2268 
Q 2250 2553 1709 2553 
Q 1456 2553 1204 2497 
Q 953 2441 691 2322 
L 691 4666 
z
" transform="scale(0.015625)"/>
       </defs>
       <use xlink:href="#DejaVuSans-30"/>
       <use xlink:href="#DejaVuSans-2e" transform="translate(63.623047 0)"/>
       <use xlink:href="#DejaVuSans-32" transform="translate(95.410156 0)"/>
       <use xlink:href="#DejaVuSans-35" transform="translate(159.033203 0)"/>
      </g>
     </g>
    </g>
    <g id="ytick_3">
     <g id="line2d_7">
      <g>
       <use xlink:href="#mb1186d7539" x="84.71" y="139.763055" style="stroke: #000000; stroke-width: 0.8"/>
      </g>
     </g>
     <g id="text_7">
      <!-- 0.50 -->
      <g transform="translate(33.17875 147.361492) scale(0.2 -0.2)">
       <use xlink:href="#DejaVuSans-30"/>
       <use xlink:href="#DejaVuSans-2e" transform="translate(63.623047 0)"/>
       <use xlink:href="#DejaVuSans-35" transform="translate(95.410156 0)"/>
       <use xlink:href="#DejaVuSans-30" transform="translate(159.033203 0)"/>
      </g>
     </g>
    </g>
    <g id="ytick_4">
     <g id="line2d_8">
      <g>
       <use xlink:href="#mb1186d7539" x="84.71" y="86.04048" style="stroke: #000000; stroke-width: 0.8"/>
      </g>
     </g>
     <g id="text_8">
      <!-- 0.75 -->
      <g transform="translate(33.17875 93.638918) scale(0.2 -0.2)">
       <defs>
        <path id="DejaVuSans-37" d="M 525 4666 
L 3525 4666 
L 3525 4397 
L 1831 0 
L 1172 0 
L 2766 4134 
L 525 4134 
L 525 4666 
z
" transform="scale(0.015625)"/>
       </defs>
       <use xlink:href="#DejaVuSans-30"/>
       <use xlink:href="#DejaVuSans-2e" transform="translate(63.623047 0)"/>
       <use xlink:href="#DejaVuSans-37" transform="translate(95.410156 0)"/>
       <use xlink:href="#DejaVuSans-35" transform="translate(159.033203 0)"/>
      </g>
     </g>
    </g>
    <g id="ytick_5">
     <g id="line2d_9">
      <g>
       <use xlink:href="#mb1186d7539" x="84.71" y="32.317906" style="stroke: #000000; stroke-width: 0.8"/>
      </g>
     </g>
     <g id="text_9">
      <!-- 1.00 -->
      <g transform="translate(33.17875 39.916343) scale(0.2 -0.2)">
       <use xlink:href="#DejaVuSans-31"/>
       <use xlink:href="#DejaVuSans-2e" transform="translate(63.623047 0)"/>
       <use xlink:href="#DejaVuSans-30" transform="translate(95.410156 0)"/>
       <use xlink:href="#DejaVuSans-30" transform="translate(159.033203 0)"/>
      </g>
     </g>
    </g>
    <g id="text_10">
     <!-- R² -->
     <g transform="translate(25.019375 150.729033) rotate(-90) scale(0.2 -0.2)">
      <defs>
       <path id="DejaVuSans-52" d="M 2841 2188 
Q 3044 2119 3236 1894 
Q 3428 1669 3622 1275 
L 4263 0 
L 3584 0 
L 2988 1197 
Q 2756 1666 2539 1819 
Q 2322 1972 1947 1972 
L 1259 1972 
L 1259 0 
L 628 0 
L 628 4666 
L 2053 4666 
Q 2853 4666 3247 4331 
Q 3641 3997 3641 3322 
Q 3641 2881 3436 2590 
Q 3231 2300 2841 2188 
z
M 1259 4147 
L 1259 2491 
L 2053 2491 
Q 2509 2491 2742 2702 
Q 2975 2913 2975 3322 
Q 2975 3731 2742 3939 
Q 2509 4147 2053 4147 
L 1259 4147 
z
" transform="scale(0.015625)"/>
       <path id="DejaVuSans-b2" d="M 838 2444 
L 2163 2444 
L 2163 2088 
L 294 2088 
L 294 2431 
Q 400 2528 597 2703 
Q 1672 3656 1672 3950 
Q 1672 4156 1509 4282 
Q 1347 4409 1081 4409 
Q 919 4409 728 4354 
Q 538 4300 313 4191 
L 313 4575 
Q 553 4663 761 4706 
Q 969 4750 1147 4750 
Q 1600 4750 1872 4544 
Q 2144 4338 2144 4000 
Q 2144 3566 1109 2678 
Q 934 2528 838 2444 
z
" transform="scale(0.015625)"/>
      </defs>
      <use xlink:href="#DejaVuSans-52"/>
      <use xlink:href="#DejaVuSans-b2" transform="translate(69.482422 0)"/>
     </g>
    </g>
   </g>
   <g id="LineCollection_1">
    <path d="M 111.331779 32.342838 
L 132.348972 32.342838 
" clip-path="url(#pc4cfba385b)" style="fill: none; stroke: #000000; stroke-width: 1.5"/>
   </g>
   <g id="LineCollection_2">
    <path d="M 111.331779 226.971557 
L 132.348972 226.971557 
" clip-path="url(#pc4cfba385b)" style="fill: none; stroke: #000000; stroke-width: 1.5"/>
   </g>
   <g id="LineCollection_3">
    <path d="M 121.840375 226.971557 
L 121.840375 32.342838 
" clip-path="url(#pc4cfba385b)" style="fill: none; stroke: #000000; stroke-width: 1.5"/>
   </g>
   <g id="LineCollection_4">
    <path d="M 111.331779 37.795059 
L 132.348972 37.795059 
" clip-path="url(#pc4cfba385b)" style="fill: none; stroke: #000000; stroke-width: 1.5"/>
   </g>
   <g id="LineCollection_5">
    <path d="M 181.389091 32.344024 
L 202.406285 32.344024 
" clip-path="url(#pc4cfba385b)" style="fill: none; stroke: #000000; stroke-width: 1.5"/>
   </g>
   <g id="LineCollection_6">
    <path d="M 181.389091 226.23744 
L 202.406285 226.23744 
" clip-path="url(#pc4cfba385b)" style="fill: none; stroke: #000000; stroke-width: 1.5"/>
   </g>
   <g id="LineCollection_7">
    <path d="M 191.897688 226.23744 
L 191.897688 32.344024 
" clip-path="url(#pc4cfba385b)" style="fill: none; stroke: #000000; stroke-width: 1.5"/>
   </g>
   <g id="LineCollection_8">
    <path d="M 181.389091 39.043896 
L 202.406285 39.043896 
" clip-path="url(#pc4cfba385b)" style="fill: none; stroke: #000000; stroke-width: 1.5"/>
   </g>
   <g id="LineCollection_9">
    <path d="M 321.503715 55.748059 
L 342.520909 55.748059 
" clip-path="url(#pc4cfba385b)" style="fill: none; stroke: #000000; stroke-width: 1.5"/>
   </g>
   <g id="LineCollection_10">
    <path d="M 321.503715 247.132435 
L 342.520909 247.132435 
" clip-path="url(#pc4cfba385b)" style="fill: none; stroke: #000000; stroke-width: 1.5"/>
   </g>
   <g id="LineCollection_11">
    <path d="M 332.012312 247.132435 
L 332.012312 55.748059 
" clip-path="url(#pc4cfba385b)" style="fill: none; stroke: #000000; stroke-width: 1.5"/>
   </g>
   <g id="LineCollection_12">
    <path d="M 321.503715 221.525822 
L 342.520909 221.525822 
" clip-path="url(#pc4cfba385b)" style="fill: none; stroke: #000000; stroke-width: 1.5"/>
   </g>
   <g id="LineCollection_13">
    <path d="M 391.561028 128.291772 
L 412.578221 128.291772 
" clip-path="url(#pc4cfba385b)" style="fill: none; stroke: #000000; stroke-width: 1.5"/>
   </g>
   <g id="LineCollection_14">
    <path d="M 391.561028 247.199603 
L 412.578221 247.199603 
" clip-path="url(#pc4cfba385b)" style="fill: none; stroke: #000000; stroke-width: 1.5"/>
   </g>
   <g id="LineCollection_15">
    <path d="M 402.069625 247.199603 
L 402.069625 128.291772 
" clip-path="url(#pc4cfba385b)" style="fill: none; stroke: #000000; stroke-width: 1.5"/>
   </g>
   <g id="LineCollection_16">
    <path d="M 391.561028 231.267697 
L 412.578221 231.267697 
" clip-path="url(#pc4cfba385b)" style="fill: none; stroke: #000000; stroke-width: 1.5"/>
   </g>
   <g id="patch_3">
    <path d="M 84.71 257.942442 
L 84.71 21.6 
" style="fill: none; stroke: #000000; stroke-width: 0.8; stroke-linejoin: miter; stroke-linecap: square"/>
   </g>
   <g id="patch_4">
    <path d="M 84.71 257.942442 
L 439.2 257.942442 
" style="fill: none; stroke: #000000; stroke-width: 0.8; stroke-linejoin: miter; stroke-linecap: square"/>
   </g>
  </g>
 </g>
 <defs>
  <clipPath id="pc4cfba385b">
   <rect x="84.71" y="21.6" width="354.49" height="236.342442"/>
  </clipPath>
 </defs>
</svg>
